<svg width="225" height="90" viewBox="0 0 225 90" fill="none" xmlns="http://www.w3.org/2000/svg">
<mask id="path-1-inside-1_2358_7558" fill="white">
<path d="M72.5335 52.3516V67.8906H59.7366V88H42.8265V67.8906H0.0940628V52.8086L37.5706 1.16406H59.7366V52.3516H72.5335ZM18.3753 52.3516H42.8265V18.7598L18.3753 52.3516ZM111.5 89.1426C89.5625 89.1426 75.623 72.0039 75.623 44.582C75.623 17.1602 89.5625 0.0214844 111.5 0.0214844C133.438 0.0214844 147.377 17.1602 147.377 44.582C147.377 72.0039 133.438 89.1426 111.5 89.1426ZM111.5 74.0605C122.469 74.0605 128.867 63.3203 128.867 44.582C128.867 25.8438 122.469 15.1035 111.5 15.1035C100.531 15.1035 94.1328 25.8438 94.1328 44.582C94.1328 63.3203 100.531 74.0605 111.5 74.0605ZM224.049 52.3516V67.8906H211.252V88H194.341V67.8906H151.609V52.8086L189.086 1.16406H211.252V52.3516H224.049ZM169.89 52.3516H194.341V18.7598L169.89 52.3516Z"/>
</mask>
<path d="M72.5335 52.3516H75.5335V49.3516H72.5335V52.3516ZM72.5335 67.8906V70.8906H75.5335V67.8906H72.5335ZM59.7366 67.8906V64.8906H56.7366V67.8906H59.7366ZM59.7366 88V91H62.7366V88H59.7366ZM42.8265 88H39.8265V91H42.8265V88ZM42.8265 67.8906H45.8265V64.8906H42.8265V67.8906ZM0.0940628 67.8906H-2.90594V70.8906H0.0940628V67.8906ZM0.0940628 52.8086L-2.334 51.0466L-2.90594 51.8348V52.8086H0.0940628ZM37.5706 1.16406V-1.83594H36.041L35.1426 -0.597897L37.5706 1.16406ZM59.7366 1.16406H62.7366V-1.83594H59.7366V1.16406ZM59.7366 52.3516H56.7366V55.3516H59.7366V52.3516ZM18.3753 52.3516L15.9498 50.5861L12.4811 55.3516H18.3753V52.3516ZM42.8265 52.3516V55.3516H45.8265V52.3516H42.8265ZM42.8265 18.7598H45.8265V9.54055L40.401 16.9943L42.8265 18.7598ZM69.5335 52.3516V67.8906H75.5335V52.3516H69.5335ZM72.5335 64.8906H59.7366V70.8906H72.5335V64.8906ZM56.7366 67.8906V88H62.7366V67.8906H56.7366ZM59.7366 85H42.8265V91H59.7366V85ZM45.8265 88V67.8906H39.8265V88H45.8265ZM42.8265 64.8906H0.0940628V70.8906H42.8265V64.8906ZM3.09406 67.8906V52.8086H-2.90594V67.8906H3.09406ZM2.52213 54.5705L39.9987 2.92602L35.1426 -0.597897L-2.334 51.0466L2.52213 54.5705ZM37.5706 4.16406H59.7366V-1.83594H37.5706V4.16406ZM56.7366 1.16406V52.3516H62.7366V1.16406H56.7366ZM59.7366 55.3516H72.5335V49.3516H59.7366V55.3516ZM18.3753 55.3516H42.8265V49.3516H18.3753V55.3516ZM45.8265 52.3516V18.7598H39.8265V52.3516H45.8265ZM40.401 16.9943L15.9498 50.5861L20.8008 54.1171L45.252 20.5253L40.401 16.9943ZM111.5 86.1426C101.385 86.1426 93.2941 82.2276 87.6691 75.2609C81.9883 68.2251 78.623 57.8167 78.623 44.582H72.623C72.623 58.7693 76.2275 70.6411 83.0008 79.0301C89.8299 87.4882 99.6777 92.1426 111.5 92.1426V86.1426ZM78.623 44.582C78.623 31.3474 81.9883 20.939 87.6691 13.9032C93.2941 6.93644 101.385 3.02148 111.5 3.02148V-2.97852C99.6777 -2.97852 89.8299 1.67587 83.0008 10.1339C76.2275 18.5229 72.623 30.3948 72.623 44.582H78.623ZM111.5 3.02148C121.615 3.02148 129.706 6.93644 135.331 13.9032C141.012 20.939 144.377 31.3474 144.377 44.582H150.377C150.377 30.3948 146.773 18.5229 139.999 10.1339C133.17 1.67587 123.322 -2.97852 111.5 -2.97852V3.02148ZM144.377 44.582C144.377 57.8167 141.012 68.2251 135.331 75.2609C129.706 82.2276 121.615 86.1426 111.5 86.1426V92.1426C123.322 92.1426 133.17 87.4882 139.999 79.0301C146.773 70.6411 150.377 58.7693 150.377 44.582H144.377ZM111.5 77.0605C118.166 77.0605 123.433 73.7065 126.88 67.8743C130.233 62.1993 131.867 54.2213 131.867 44.582H125.867C125.867 53.681 124.302 60.4423 121.714 64.822C119.219 69.0445 115.803 71.0605 111.5 71.0605V77.0605ZM131.867 44.582C131.867 34.9427 130.233 26.9648 126.88 21.2897C123.433 15.4576 118.166 12.1035 111.5 12.1035V18.1035C115.803 18.1035 119.219 20.1196 121.714 24.3421C124.302 28.7217 125.867 35.483 125.867 44.582H131.867ZM111.5 12.1035C104.834 12.1035 99.5666 15.4576 96.1203 21.2897C92.7669 26.9648 91.1328 34.9427 91.1328 44.582H97.1328C97.1328 35.483 98.6979 28.7217 101.286 24.3421C103.781 20.1196 107.197 18.1035 111.5 18.1035V12.1035ZM91.1328 44.582C91.1328 54.2213 92.7669 62.1993 96.1203 67.8743C99.5666 73.7065 104.834 77.0605 111.5 77.0605V71.0605C107.197 71.0605 103.781 69.0445 101.286 64.822C98.6979 60.4423 97.1328 53.681 97.1328 44.582H91.1328ZM224.049 52.3516H227.049V49.3516H224.049V52.3516ZM224.049 67.8906V70.8906H227.049V67.8906H224.049ZM211.252 67.8906V64.8906H208.252V67.8906H211.252ZM211.252 88V91H214.252V88H211.252ZM194.341 88H191.341V91H194.341V88ZM194.341 67.8906H197.341V64.8906H194.341V67.8906ZM151.609 67.8906H148.609V70.8906H151.609V67.8906ZM151.609 52.8086L149.181 51.0466L148.609 51.8348V52.8086H151.609ZM189.086 1.16406V-1.83594H187.556L186.658 -0.597897L189.086 1.16406ZM211.252 1.16406H214.252V-1.83594H211.252V1.16406ZM211.252 52.3516H208.252V55.3516H211.252V52.3516ZM169.89 52.3516L167.465 50.5861L163.996 55.3516H169.89V52.3516ZM194.341 52.3516V55.3516H197.341V52.3516H194.341ZM194.341 18.7598H197.341V9.54055L191.916 16.9943L194.341 18.7598ZM221.049 52.3516V67.8906H227.049V52.3516H221.049ZM224.049 64.8906H211.252V70.8906H224.049V64.8906ZM208.252 67.8906V88H214.252V67.8906H208.252ZM211.252 85H194.341V91H211.252V85ZM197.341 88V67.8906H191.341V88H197.341ZM194.341 64.8906H151.609V70.8906H194.341V64.8906ZM154.609 67.8906V52.8086H148.609V67.8906H154.609ZM154.037 54.5705L191.514 2.92602L186.658 -0.597897L149.181 51.0466L154.037 54.5705ZM189.086 4.16406H211.252V-1.83594H189.086V4.16406ZM208.252 1.16406V52.3516H214.252V1.16406H208.252ZM211.252 55.3516H224.049V49.3516H211.252V55.3516ZM169.89 55.3516H194.341V49.3516H169.89V55.3516ZM197.341 52.3516V18.7598H191.341V52.3516H197.341ZM191.916 16.9943L167.465 50.5861L172.316 54.1171L196.767 20.5253L191.916 16.9943Z" fill="url(#paint0_linear_2358_7558)" mask="url(#path-1-inside-1_2358_7558)"/>
<defs>
<linearGradient id="paint0_linear_2358_7558" x1="-22.4804" y1="-31" x2="273.896" y2="60.9025" gradientUnits="userSpaceOnUse">
<stop stop-color="#373839"/>
<stop offset="1" stop-color="#D8156B"/>
</linearGradient>
</defs>
</svg>
