<svg width="76" height="93" viewBox="0 0 76 93" fill="none" xmlns="http://www.w3.org/2000/svg">
<path fill-rule="evenodd" clip-rule="evenodd" d="M49.0424 75.301C47.9646 74.2574 46.5655 73.4928 45.1664 73.0072C47.6848 72.9556 47.8091 73.0899 49.0424 75.301ZM59.893 60.9496C59.2401 60.3916 58.494 60.154 57.7167 60.154H57.696H57.6545H39.3214L42.3579 56.1348L43.757 55.9694L44.7104 54.7192H43.4357L43.5808 54.5126L44.9177 54.4196L45.7157 53.3864L44.6171 53.1488L44.783 52.9111L45.9644 53.0248L46.9593 51.7126H45.1664L44.6171 49.9045L43.6222 51.2166L43.9228 52.2499L43.8088 52.4048L43.3632 51.5679L42.5859 52.6218L42.7206 53.8514L42.5755 54.058L42.3682 52.9008L41.4459 54.151L41.6324 55.6078L38.7099 59.4721V56.3104L39.7255 55.2979V53.7067L38.7099 54.5023V54.244L39.7255 53.3451V52.0226L38.7099 52.5392V52.2189L39.7255 51.5989V49.9355L38.2954 51.0203L36.8134 49.9251V51.5886L37.6528 52.2085V52.4152L36.8134 52.0019V53.3141L37.6528 54.213V54.4713L36.8134 53.6757V55.2669L37.829 56.3001V59.5237L34.8236 55.5665L35.0101 54.1097L34.0567 52.8595L33.8494 54.0167L33.6939 53.81L33.8494 52.5805L33.041 51.5266L32.6058 52.3635L32.471 52.2085L32.7716 51.1753L31.7767 49.8631L31.2171 51.6713H29.4242L30.4191 52.9834L31.6005 52.8698L31.787 53.1074L30.6885 53.3451L31.4554 54.3783L32.7923 54.4713L32.9478 54.6779H31.673L32.6265 55.9281L34.0463 56.0934L37.0828 60.1127H19.0606C18.2626 60.092 17.4646 60.3193 16.791 60.9082C13.8374 63.8219 18.1071 67.4795 19.8482 64.4522C20.3146 63.14 19.0502 62.5097 17.8688 62.9023C17.7548 61.7658 19.5477 61.4662 20.3975 62.0448L22.0971 63.7083L23.6724 65.1858C25.8073 66.8596 27.5276 67.4795 29.2169 67.2212C30.6471 67.0145 32.0669 66.1777 33.6939 64.8345C34.4194 64.1629 35.0723 63.6566 35.7148 63.326L29.2272 71.9533L29.2065 71.912L28.6469 70.2175L28.2013 70.1555C28.1598 72.284 27.6209 74.0921 26.6467 75.9106L26.854 76.0759C27.6002 75.3423 28.3878 74.7844 29.1962 74.3194C30.0356 73.8338 30.9372 73.4205 31.9321 73.0485L31.756 72.6353L29.9216 72.5216L37.1865 62.923C37.373 62.9023 37.5803 62.9023 37.7876 62.9023V76.3858L36.2745 75.3526L35.8807 75.5593C37.1139 77.2951 37.7772 79.0619 38.0777 81.1077H38.3368C38.6788 78.9999 39.4561 77.3467 40.565 75.5593L40.1919 75.3526L38.6581 76.4065V62.9437C38.8239 62.923 39.0001 62.923 39.1763 62.923L46.4619 72.5526L44.6068 72.6663L44.4617 73.0795C45.581 73.5135 46.6173 73.9784 47.5915 74.5881C48.2651 75.022 48.9077 75.5076 49.5398 76.1172L49.7471 75.9519C48.7729 74.1231 48.2651 72.315 48.1926 70.1969L47.7573 70.2589L47.5915 70.7445L47.1769 71.9947L40.5443 63.2226C41.3112 63.5429 42.0781 64.0802 42.959 64.9068C44.6586 66.3016 46.0991 67.1489 47.5915 67.3142C49.2186 67.5002 50.9078 66.8802 52.9805 65.2581L54.5558 63.7806L56.3487 62.1688C57.126 61.4972 58.8981 61.6521 58.7841 62.985C57.5094 62.5407 56.1933 63.45 56.784 64.6692C58.5458 67.6345 62.8363 63.8736 59.893 60.9496ZM42.3786 61.7141L45.5499 63.2846C46.3168 63.6566 46.9904 63.9046 47.6122 64.0492C49.6331 64.5142 51.0633 63.8426 52.9287 62.3857L53.1283 62.2381C53.8999 61.667 54.6655 61.1003 55.4574 60.6913H39.7774C40.6168 60.8876 41.477 61.2285 42.3786 61.7141ZM33.953 83.2258C33.3519 82.8331 32.6369 82.5542 31.8389 82.3062C31.8292 82.3013 31.8206 82.2965 31.8125 82.2919C31.786 82.277 31.7645 82.2649 31.7249 82.2649C31.7663 82.2855 31.7871 82.3062 31.8389 82.3578C33.041 83.2154 33.6318 84.0523 33.953 84.9512C34.1396 85.4678 34.2328 86.0258 34.3261 86.6147L35.6423 86.4804L35.9636 86.4391C35.8703 86.0051 35.777 85.6228 35.6423 85.2819C35.2485 84.3313 34.6785 83.7114 33.953 83.2258ZM33.953 11.0658C34.1603 10.9728 34.409 10.9108 34.6474 10.8591C34.5852 9.54694 34.4401 8.01778 33.953 6.47828C33.611 5.38307 33.1136 4.25686 32.3985 3.19265C32.3363 3.21331 32.2741 3.23512 32.212 3.25693C32.0876 3.30056 31.9632 3.34418 31.8389 3.37862C30.958 3.67826 30.0978 4.05022 29.248 4.47384C29.1858 4.4945 29.1236 4.53583 29.0614 4.58749L29.248 4.77347C30.2014 5.78602 31.1031 7.08788 31.8389 8.3794C32.44 9.42295 32.9167 10.4665 33.2379 11.3241C33.4058 11.2659 33.5788 11.2025 33.7461 11.1413L33.7471 11.1409C33.817 11.1153 33.8859 11.0901 33.953 11.0658ZM18.6046 14.4134C18.675 14.4555 18.7476 14.4934 18.8193 14.5309C18.906 14.5762 18.9916 14.6208 19.071 14.6717C20.7602 15.5706 22.8951 15.8496 24.9782 15.4879C26.2736 15.2813 27.5483 14.7957 28.7091 14.0724C28.8956 13.9588 29.0822 13.8348 29.248 13.7005C29.3102 13.6592 29.3827 13.6075 29.4552 13.5455L29.3931 13.5248C29.3516 13.3905 29.2998 13.2665 29.2376 13.1322L29.2338 13.1212C29.0898 12.7111 28.935 12.2701 28.6987 11.758C28.1183 10.4252 27.1234 8.79269 25.0507 7.26353V7.28419C25.0369 7.29797 25.0139 7.31174 24.9909 7.32552C24.9793 7.33241 24.9678 7.3393 24.9575 7.34618C24.3046 7.92479 23.2682 9.06133 22.7604 9.68126C23.5273 10.0532 24.2735 10.4458 24.9575 10.9315C25.9524 11.6237 26.8333 12.4813 27.538 13.6178C26.7918 14.1034 25.8798 14.4134 24.9575 14.5167C23.4237 14.682 21.8277 14.2791 20.6669 13.2872C20.2006 12.8739 20.2524 12.2126 20.7809 11.8923C20.0659 11.8923 19.4855 11.9543 19.0606 12.0783C17.5993 12.5433 17.5786 13.6282 18.6046 14.4134ZM5.76414 42.0313C6.58286 41.4114 7.17358 40.3678 7.4534 39.066H7.47412C7.90939 37.1235 8.14776 35.3671 8.25139 33.6313C8.39648 31.6372 8.36539 29.6947 8.25139 27.6386C7.93012 23.5574 7.55703 21.9869 6.1165 19.7241C6.01286 19.5692 5.90922 19.4245 5.7745 19.3109C4.10596 17.7197 0.229991 18.4326 0.00199257 21.305C-0.0601888 23.4127 1.33889 24.8902 3.37015 24.4976C5.37032 24.2186 5.59832 21.8319 4.2096 20.8194C3.2147 20.0651 1.1938 20.8607 2.23016 22.1935C2.76906 22.8445 3.48415 22.2865 3.69142 22.1005L3.82615 22.5138C3.30797 23.0924 2.34416 23.2681 1.6498 22.3072C0.530534 20.3647 3.61888 18.7632 5.22523 21.0157C5.4325 21.2946 5.61905 21.5736 5.78486 21.8732C6.98704 24.0017 7.3394 26.564 7.31867 29.8497H7.15285C7.10241 29.5647 7.07816 29.2743 7.05319 28.9753C7.00119 28.3528 6.94608 27.6929 6.64504 26.967C6.43777 26.4504 6.12686 26.1714 5.78486 26.0474C4.83141 25.7065 3.64997 26.6467 3.76397 27.6179C4.60342 27.5043 5.29778 28.0725 5.78486 29.0128C7.05958 31.3788 7.24613 36.1317 6.30304 38.942C6.16831 39.376 6.0025 39.7583 5.78486 40.0579C5.46359 40.5435 5.06978 40.8948 4.64487 41.0498C3.6707 41.2358 2.95561 41.0911 2.50997 40.7088C1.51507 39.8719 1.81562 38.4151 2.71725 37.9398C3.41161 37.5988 4.70705 37.9604 4.57233 38.8387L4.38578 39.1177C3.91942 37.9191 2.90379 38.2601 2.59288 38.9627C2.33379 39.6343 2.57216 40.6365 4.26142 40.4402C5.87813 40.0682 5.7745 38.0328 5.10087 37.4542C1.6498 34.4682 -2.16399 40.6468 2.8727 42.5479C4.03342 42.8269 5.0076 42.6099 5.76414 42.0313ZM29.248 5.55872L29.1965 5.49446C29.0457 5.30582 28.8858 5.10566 28.7091 4.93878C28.6676 4.89746 28.6158 4.84579 28.5743 4.8148C28.5513 4.83008 28.5298 4.84254 28.5086 4.85479C28.4724 4.87565 28.4373 4.8959 28.3982 4.92845C27.3825 5.50705 26.4187 6.17865 25.5171 6.92256C25.4964 6.92256 25.4756 6.94323 25.4549 6.96389C26.8333 7.91445 27.8696 8.92701 28.7091 9.8569C28.7845 9.95298 28.8599 10.044 28.9339 10.1333C29.0431 10.265 29.1492 10.3931 29.248 10.5285C29.8698 11.2827 30.3672 12.006 30.7818 12.6156L30.8607 12.5679C31.1806 12.3745 31.523 12.1674 31.8389 11.9957C31.8527 11.9888 31.8677 11.9819 31.8826 11.975C31.9126 11.9612 31.9425 11.9475 31.9632 11.9337C31.9548 11.9021 31.9459 11.8701 31.9369 11.8376C31.9015 11.7101 31.8636 11.5734 31.8389 11.4171C31.4347 9.73292 30.6367 7.36685 29.248 5.55872ZM13.5886 14.0931C14.0239 14.5064 14.4695 14.8887 14.9359 15.2503C16.2106 16.2215 17.589 16.9138 19.071 17.3374C20.0866 17.6164 21.1333 17.7714 22.2629 17.823C23.1646 17.885 24.0973 17.8437 24.9782 17.7094C25.2421 17.6728 25.4956 17.6208 25.7534 17.5678C25.8601 17.5459 25.9675 17.5239 26.0767 17.5027C26.2718 17.4629 26.4671 17.4217 26.6625 17.3806C29.0017 16.8878 31.3706 16.3888 33.7043 18.0193L33.6629 17.7404C33.1758 16.4488 31.6938 15.9322 30.4709 16.0872C30.0028 16.1411 29.1672 16.4443 28.5958 16.6518C28.5093 16.6832 28.4289 16.7123 28.3567 16.7381C28.4327 16.7106 28.5087 16.6739 28.5847 16.6371C28.6227 16.6187 28.6607 16.6004 28.6987 16.5832C28.8645 16.5212 29.0718 16.4385 29.2376 16.3249C29.294 16.3044 29.3452 16.2764 29.399 16.2471C29.4539 16.2171 29.5115 16.1857 29.5796 16.1595C30.502 15.6739 31.1549 15.2813 31.8285 14.7957C32.0876 14.6304 32.3467 14.4547 32.6265 14.2378C32.6265 14.2378 32.6679 14.2171 32.7301 14.1758C33.0721 13.8761 33.5385 13.5248 33.9323 13.4215C34.2329 13.3595 34.5127 13.4008 34.751 13.6798L34.6267 13.8245C34.4505 13.6178 34.2121 13.5868 33.953 13.6592C33.6525 13.7521 33.3001 13.9794 33.0307 14.2171C32.9167 14.558 33.0929 15.0333 33.4867 15.2916C33.6421 15.3536 33.7872 15.3846 33.953 15.3846C34.6474 15.3433 35.3936 14.713 35.6423 13.9485C35.7563 13.6488 35.7563 13.2975 35.6423 12.9772V12.9566C35.3003 12.2126 34.7407 11.8613 33.953 11.9853C33.5385 12.0783 33.0929 12.2436 32.5747 12.5639C32.3156 12.7293 32.0876 12.8842 31.8492 13.0496C30.9891 13.6282 30.1289 14.1861 29.2583 14.6614C29.1754 14.7182 29.0822 14.7647 28.9889 14.8112C28.8956 14.8577 28.8023 14.9042 28.7194 14.961C28.6088 15.01 28.4992 15.0599 28.3898 15.1097C28.1304 15.2277 27.873 15.3448 27.6105 15.4466C26.7296 15.7876 25.8487 16.0459 24.9886 16.2009C22.9677 16.5728 20.9986 16.3662 19.0813 15.4466C17.6615 14.775 16.2728 13.7108 14.9463 12.1816C14.9048 12.1403 14.853 12.0887 14.8219 12.0473C14.7866 12.0077 14.7502 11.9677 14.7133 11.927C14.3175 11.491 13.8645 10.9921 14.0446 10.3115C14.1068 10.0326 14.3037 9.84657 14.5317 9.71225C14.6457 9.65026 14.7908 9.5986 14.9463 9.57794C15.0603 9.55727 15.1535 9.55727 15.2883 9.57794C15.7028 9.63993 16.107 9.89823 16.2417 10.4148L15.9412 10.4768C15.8375 10.1049 15.5473 9.93956 15.2468 9.89823C15.1328 9.87757 15.0395 9.87757 14.9463 9.89823C14.8323 9.9189 14.7597 9.93956 14.6664 9.99122C14.511 10.0842 14.3866 10.1979 14.3452 10.3838C14.283 10.6422 14.3659 10.9831 14.7183 11.4274V11.4067C14.7804 11.4997 14.8737 11.5514 14.9566 11.5927C15.4023 11.851 15.9722 11.727 16.4179 11.2001C17.019 10.3838 16.5112 9.09232 14.9566 8.86502C14.7701 8.84435 14.5421 8.82369 14.3348 8.82369C14.0757 8.84435 13.8166 8.91668 13.6094 8.989C11.9201 9.5676 11.4123 11.5824 13.2155 13.6798C13.2339 13.7015 13.2526 13.7237 13.2715 13.7462C13.3699 13.8633 13.4756 13.9891 13.5886 14.0931ZM36.6532 10.4365C36.8248 10.4146 36.9953 10.3929 37.1657 10.3735H37.2797C37.5803 8.11076 37.6943 5.55872 37.715 2.31441H37.6943C37.6062 2.31441 37.5207 2.31958 37.4352 2.32474C37.3497 2.32991 37.2642 2.33507 37.1761 2.33507C36.6579 2.35574 36.1397 2.39707 35.6423 2.46939C35.4996 2.49311 35.3569 2.51548 35.214 2.53787C34.7966 2.6033 34.3777 2.66896 33.953 2.76903C33.8066 2.80553 33.6649 2.83884 33.5262 2.87147C33.3115 2.92198 33.1037 2.97084 32.896 3.02733L32.8752 3.04799C33.269 3.6266 33.6318 4.2052 33.953 4.7838C34.6888 6.14765 35.2485 7.47017 35.6423 8.76169C35.8288 9.37129 35.9532 9.94989 36.0672 10.5078C36.2649 10.4859 36.4598 10.4611 36.6532 10.4365ZM9.66084 50.2661C9.8992 49.7805 10.0547 49.1502 10.1272 48.396L10.1065 18.1846H20.2628C20.1798 18.1607 20.0972 18.1377 20.0148 18.1147C19.7064 18.0286 19.4003 17.9432 19.0813 17.8127C17.703 17.3581 16.2106 16.6555 14.9463 15.7772C14.4592 15.4363 13.9928 15.0643 13.599 14.682C12.5834 13.7315 11.8579 12.6466 11.6506 11.4377C11.4123 11.9957 10.9356 12.8222 10.5314 13.3285C11.1843 14.7027 12.1999 15.7979 13.5886 16.5522C13.6715 16.5987 13.7648 16.64 13.8581 16.6813C13.9514 16.7226 14.0446 16.764 14.1275 16.8105L13.941 17.0894C13.8876 17.0649 13.8391 17.0387 13.7936 17.0141C13.7241 16.9766 13.6616 16.9428 13.599 16.9241C12.003 16.0872 11.1636 15.2503 10.3034 13.7418C10.1727 13.929 10.0035 14.1099 9.82604 14.2994C9.77827 14.3505 9.72992 14.4021 9.68156 14.4547C9.63234 14.5147 9.58312 14.5689 9.53086 14.6265C9.48408 14.678 9.43486 14.7323 9.38102 14.7957C9.4432 14.9817 9.5572 15.1883 9.68156 15.3743C10.3345 16.2732 11.5574 17.1308 11.8165 17.1824L11.5781 17.4407C10.7801 17.0274 10.1583 16.4695 9.68156 15.9322C9.4432 15.6326 9.24629 15.3536 9.1012 15.0953C8.77993 15.4363 8.29284 15.9116 7.98194 16.2112C8.4483 16.3765 9.12193 17.0688 9.2152 17.4097L8.93539 17.6164C8.72812 17.1308 8.24103 16.6452 7.6814 16.4592L6.63467 17.2238C7.28758 17.4304 7.6503 18.04 7.90939 18.5153L7.5674 18.7942C7.41194 18.2363 6.79013 17.6577 6.22013 17.5027L5.80559 17.7404L5.18378 18.1537C5.39105 18.2776 5.61905 18.4326 5.80559 18.6186C6.96631 19.6518 7.77467 21.367 8.2203 23.3611C9.01829 26.8224 8.96648 31.0379 8.77993 33.6313L8.76369 33.8339C8.64988 35.2563 8.47845 37.3988 8.03376 39.2313C7.59849 40.6675 6.91449 41.959 5.80559 42.6513C5.11123 43.1059 4.27178 43.3229 3.23542 43.1679C3.29895 43.2448 3.3597 43.3201 3.41865 43.393C3.98484 44.094 4.38416 44.5885 5.46359 44.4387C5.58795 44.4181 5.70195 44.3974 5.80559 44.3457C8.12703 43.6948 8.75921 41.618 9.19448 39.6239L9.38102 40.3162C8.89393 42.9612 7.46376 44.4077 5.80559 44.8314C5.52577 44.8933 5.24596 44.945 4.96614 44.945L5.63977 46.0815C5.67086 46.0919 5.69936 46.1022 5.72786 46.1125C5.75636 46.1229 5.78486 46.1332 5.81595 46.1435C6.97667 46.4225 9.28775 45.007 9.15302 43.4778L9.39138 44.0771C9.48466 45.3273 6.97667 46.8255 5.90922 46.5258L6.30304 47.9413C6.79013 48.4993 8.99757 47.9827 9.27738 46.7841L9.59866 47.0218C9.22557 48.117 7.02849 49.1709 6.16831 48.2513C6.12838 48.2812 6.08951 48.3089 6.0517 48.3359C5.9718 48.3929 5.89667 48.4465 5.82632 48.5096C4.90396 49.3465 5.08014 50.5451 5.82632 51.2786C6.12686 51.5576 6.5414 51.7643 6.98704 51.8572C8.20994 52.0019 9.13229 51.4646 9.66084 50.2661ZM21.6204 11.4067L22.636 13.6695C23.0817 14.0414 23.9315 14.1551 24.9782 14.0828C25.5171 14.0208 26.0767 13.9381 26.6985 13.7625C26.0042 13.4628 25.4445 13.1839 24.9782 12.8636C24.004 12.2126 23.3097 11.4687 22.4495 10.1152L22.1075 9.46428C22.9469 8.36907 23.9211 7.35652 24.9782 6.47828C26.1182 5.50705 27.3929 4.67015 28.7091 3.97789C28.792 3.9314 28.8853 3.89007 28.9785 3.84874C29.0718 3.80741 29.1651 3.76608 29.248 3.71959C29.3412 3.67826 29.4242 3.6266 29.4863 3.58527C30.2532 3.24431 31.0409 2.91368 31.8285 2.6657C32.0383 2.59147 32.2526 2.53487 32.4655 2.47863C32.5786 2.44876 32.6912 2.41899 32.8027 2.38673C33.0559 2.30959 33.3139 2.25149 33.5735 2.19304C33.6963 2.16538 33.8195 2.13764 33.9427 2.10777C34.5023 1.97345 35.0619 1.90112 35.6319 1.8288C36.119 1.7668 36.6476 1.71514 37.1657 1.69448C37.4456 1.67381 37.7254 1.67381 38.0052 1.67381C38.2643 1.67381 38.5441 1.67381 38.8239 1.69448C39.3421 1.71514 39.8603 1.75647 40.3577 1.8288C40.9174 1.89079 41.5081 1.98378 42.047 2.10777C42.1594 2.13431 42.271 2.15917 42.3815 2.18379C42.658 2.24541 42.9278 2.30552 43.187 2.38673C43.2984 2.41899 43.4111 2.44876 43.5241 2.47862C43.737 2.53487 43.9513 2.59147 44.1611 2.6657C44.9591 2.92401 45.7571 3.24431 46.5033 3.58527C46.5499 3.60593 46.5862 3.62918 46.6225 3.65243C46.6588 3.67567 46.695 3.69892 46.7417 3.71959C46.8234 3.76273 46.9096 3.80143 46.9951 3.83981C47.0939 3.88414 47.1917 3.92805 47.2806 3.97789C48.6175 4.67015 49.8715 5.50705 51.0115 6.47828C52.0685 7.35652 53.0324 8.36907 53.8822 9.46428L53.5402 10.1152C52.68 11.4791 51.9856 12.223 51.0115 12.8636C50.5451 13.1839 49.9751 13.4628 49.3118 13.7625C49.9129 13.9278 50.4933 14.0414 51.0115 14.0828C52.0685 14.1758 52.908 14.0414 53.3536 13.6695L54.3589 11.4067L54.732 10.5698L55.4574 8.958H55.4782C54.3589 6.96389 52.8044 5.27975 51.0011 3.95723C49.8611 3.12032 48.6071 2.4074 47.2702 1.8288C47.1873 1.7823 47.094 1.74614 47.0008 1.70998C46.9075 1.67381 46.8142 1.63765 46.7313 1.59116C45.8919 1.27086 45.0317 0.99189 44.1508 0.754249C43.4564 0.588934 42.7517 0.433952 42.0366 0.320298C41.4977 0.206644 40.9173 0.154983 40.3474 0.113654L40.1606 0.0975614C39.7287 0.0600552 39.2751 0.0206644 38.8135 0.0206644C38.5337 7.78722e-08 38.2539 0 37.9948 0C37.715 0 37.4352 7.78722e-08 37.1554 0.0206644C36.6372 0.0206644 36.119 0.061993 35.6216 0.113654C35.0619 0.154983 34.5023 0.227308 33.9323 0.320298C33.2172 0.433952 32.5125 0.578602 31.8181 0.754249C30.9372 0.99189 30.0771 1.27086 29.2272 1.59116C29.1443 1.63765 29.0511 1.67381 28.9578 1.70998C28.8645 1.74614 28.7712 1.7823 28.6883 1.8288C27.3514 2.4074 26.0975 3.12032 24.9575 3.95723C23.1438 5.29008 21.6204 6.96389 20.5011 8.958L21.2369 10.5698L21.6204 11.4067ZM44.1508 3.36829C44.0886 3.34763 44.0264 3.32582 43.9642 3.30401C43.8399 3.26038 43.7155 3.21675 43.5911 3.18231C42.8761 4.25686 42.389 5.37274 42.0366 6.46795C41.591 8.01778 41.4148 9.54694 41.363 10.8488C41.5703 10.9108 41.8086 10.9831 42.0366 11.0554C42.1225 11.0863 42.2073 11.1148 42.2897 11.1426C42.4561 11.1987 42.6131 11.2516 42.7517 11.3137C43.073 10.4562 43.5704 9.42295 44.1508 8.36907C44.8866 7.07755 45.7986 5.77569 46.7313 4.76314C46.7935 4.70114 46.866 4.62882 46.9386 4.57716C46.8878 4.55465 46.8462 4.52907 46.8105 4.5071C46.7806 4.48875 46.7549 4.47291 46.7313 4.4635C45.9022 4.02955 45.0317 3.67826 44.1508 3.36829ZM44.1508 11.4067C44.1301 11.4997 44.1067 11.5927 44.0847 11.6805C44.0627 11.7683 44.042 11.851 44.0264 11.9233C44.0402 11.9302 44.0552 11.9371 44.0702 11.944C44.1001 11.9578 44.1301 11.9716 44.1508 11.9853C44.4666 12.1571 44.809 12.3641 45.1289 12.5575L45.2079 12.6053C45.3349 12.4304 45.4645 12.2441 45.6002 12.0492C45.9294 11.5762 46.2939 11.0523 46.7417 10.5182C46.8361 10.4074 46.9276 10.2907 47.0224 10.1697C47.1045 10.0649 47.1892 9.95685 47.2806 9.84657C48.12 8.89601 49.1564 7.88346 50.5347 6.95356L50.4933 6.91223C49.5917 6.16831 48.5968 5.49672 47.5915 4.91812C47.5732 4.89988 47.5488 4.88567 47.5238 4.87104C47.4921 4.85252 47.4592 4.83333 47.436 4.80447H47.4153C47.3739 4.84579 47.322 4.89746 47.2806 4.92845C47.094 5.11443 46.9075 5.34174 46.7417 5.54838C45.353 7.36685 44.555 9.71225 44.1508 11.4067ZM55.302 13.3285C54.1413 14.3204 52.5453 14.7234 51.0115 14.558C50.0891 14.4444 49.1978 14.1448 48.4206 13.6592C49.1357 12.5226 50.0166 11.665 51.0115 10.9728C51.7058 10.5078 52.452 10.0945 53.2085 9.72259C52.6904 9.10266 51.654 7.96611 51.0115 7.38751L50.9493 7.32552C50.9286 7.32552 50.9286 7.30485 50.9286 7.30485C48.8662 8.83402 47.8713 10.4562 47.2806 11.7994L47.1767 12.0577C47.011 12.4691 46.8621 12.8391 46.7417 13.1735C46.7209 13.2407 46.695 13.3053 46.6691 13.3698C46.6432 13.4344 46.6173 13.499 46.5966 13.5662L46.5551 13.5868C46.6173 13.6488 46.6795 13.7005 46.7417 13.7418C46.8648 13.8357 46.9981 13.9246 47.1239 14.0084C47.178 14.0444 47.2307 14.0796 47.2806 14.1138C48.4413 14.8474 49.716 15.3123 51.0115 15.5293C53.1049 15.9012 55.2398 15.6223 56.9083 14.713L56.9983 14.6658C57.1354 14.5941 57.255 14.5314 57.3747 14.4547C58.4318 13.6591 58.3903 12.5846 56.9083 12.161C56.4834 12.0267 55.8927 11.975 55.2087 11.975C55.7269 12.2436 55.7891 12.9152 55.302 13.3285ZM61.0745 11.5927C61.1367 11.5514 61.2299 11.4791 61.3128 11.4067V11.4274C61.6341 10.9831 61.7274 10.6318 61.6548 10.3838C61.6134 10.2185 61.489 10.0842 61.3336 9.99122C61.2752 9.96536 61.2209 9.94759 61.1681 9.93032C61.1365 9.91999 61.1055 9.90984 61.0745 9.89823C60.9708 9.87757 60.8672 9.87757 60.7532 9.89823C60.4527 9.93956 60.1729 10.1049 60.0796 10.4768L59.7583 10.4148C59.893 9.89823 60.2972 9.65026 60.7118 9.57794C60.8465 9.55727 60.9501 9.55727 61.0849 9.57794C61.2196 9.5986 61.3647 9.63993 61.4994 9.71225C61.7067 9.83624 61.9139 10.0326 61.9658 10.3115C62.1523 11.0658 61.9658 11.5617 61.5408 12.006L61.5262 12.0216C61.3763 12.181 61.2354 12.3308 61.0849 12.4709C59.6858 13.8451 58.3281 14.837 56.9291 15.4776C55.0118 16.3559 53.0738 16.5522 51.0322 16.1492C49.8922 15.9116 48.7211 15.4776 47.5189 14.8577C47.5078 14.854 47.4957 14.8503 47.4831 14.8464C47.4248 14.8287 47.3542 14.8071 47.3117 14.7647C47.1459 14.7027 46.9386 14.6097 46.7728 14.5271C46.1924 14.2687 45.6328 13.9691 44.9799 13.6075C44.7726 13.4732 44.4928 13.2872 44.1819 13.0702C44.1204 13.0294 44.0581 12.9876 43.9951 12.9453C43.3888 12.5388 42.7155 12.0873 42.0677 11.975C41.4148 11.8304 40.8137 12.0163 40.3784 12.8946C40.3784 12.9049 40.3733 12.9152 40.3681 12.9256C40.3629 12.9359 40.3577 12.9462 40.3577 12.9566C40.2023 13.3492 40.2437 13.7211 40.3784 14.0931C40.6583 14.7854 41.3941 15.3433 42.0677 15.364C42.2542 15.3846 42.4615 15.364 42.6273 15.271C43.0212 15.0127 43.0419 14.6717 42.9486 14.3204L42.9138 14.2947C42.644 14.0952 42.3558 13.8822 42.0677 13.7831C41.8086 13.6901 41.5495 13.6901 41.3526 13.9381L41.1972 13.7831C41.4355 13.5042 41.7568 13.4628 42.0573 13.5765C42.4719 13.6901 42.8761 14.0104 43.2181 14.3101C43.2802 14.3307 43.3321 14.3721 43.3321 14.3721C43.4023 14.4203 43.4713 14.4686 43.5393 14.5161C43.7622 14.6719 43.9729 14.8191 44.1715 14.93C44.6317 15.2123 45.0871 15.4416 45.6268 15.7134C45.8771 15.8395 46.1456 15.9747 46.4411 16.1285C46.4751 16.147 46.5072 16.1664 46.5386 16.1853C46.6125 16.23 46.6824 16.2721 46.7624 16.2939C46.9021 16.384 47.0549 16.4481 47.1948 16.5069C47.2313 16.5222 47.267 16.5372 47.3013 16.5522L47.3635 16.5832C46.8039 16.3868 46.037 16.1182 45.6224 16.0562C44.3684 15.9012 42.845 16.4282 42.3268 17.7094L42.2853 17.9883C44.5481 16.415 46.4812 16.8068 48.8055 17.2778C49.3662 17.3914 49.9496 17.5097 50.5658 17.606C50.6436 17.6215 50.7213 17.6345 50.799 17.6474C50.8767 17.6603 50.9545 17.6732 51.0322 17.6887C51.9338 17.823 52.8458 17.854 53.7474 17.8024C54.8667 17.7404 55.9445 17.5957 56.9291 17.3167C58.411 16.8828 59.7998 16.2009 61.0849 15.2296C61.5408 14.8577 61.9865 14.4754 62.4217 14.0724L62.8363 13.6592C64.6292 11.572 64.111 9.55727 62.4217 8.96834C62.2145 8.87535 61.9554 8.82369 61.6859 8.80302C61.4787 8.80302 61.2507 8.82369 61.0849 8.84435C59.5303 9.08199 59.0225 10.3735 59.6029 11.1794C60.0381 11.727 60.5978 11.8613 61.0745 11.5927ZM41.6635 86.6044C41.7568 86.0258 41.8501 85.4678 42.0366 84.9409C42.3579 84.042 42.9382 83.2051 44.1508 82.3475C44.1922 82.3062 44.213 82.2855 44.2648 82.2545C44.2496 82.2545 44.2233 82.2656 44.19 82.2797L44.1772 82.285L44.1668 82.2893L44.1508 82.2959C43.3528 82.5542 42.6377 82.8331 42.0366 83.2154C41.3112 83.6804 40.7412 84.3106 40.3474 85.2715C40.223 85.5918 40.109 85.9844 40.0261 86.4081L40.3474 86.4494L41.6635 86.6044ZM70.1944 42.7443C69.1166 42.0313 68.4533 40.7295 68.0388 39.2623C67.5517 37.3199 67.3652 35.0778 67.2615 33.6623C67.0024 30.077 67.0232 23.3714 69.1373 19.8481C69.4379 19.3625 69.7902 18.9492 70.1944 18.6186C70.381 18.4533 70.609 18.319 70.8473 18.1846L70.1944 17.7507L69.8213 17.5131C69.241 17.6577 68.6192 18.2466 68.4741 18.8046L68.1321 18.5256L68.1685 18.4649C68.4419 18.0089 68.782 17.4417 69.4068 17.2341L68.3497 16.4695C67.7901 16.6555 67.3133 17.1411 67.1164 17.6267L66.8159 17.4201C66.9092 17.0791 67.5621 16.3868 68.0492 16.2215C67.956 16.1286 67.8428 16.0198 67.7218 15.9034C67.4526 15.6444 67.1444 15.348 66.9299 15.1057C66.7744 15.364 66.5879 15.6429 66.3495 15.9426C65.8832 16.4798 65.251 17.0378 64.453 17.4511L64.2457 17.1928C64.5048 17.1514 65.707 16.2939 66.3599 15.3846C66.4946 15.1986 66.5983 14.992 66.6604 14.806C66.5568 14.6717 66.4739 14.5684 66.3599 14.4651C66.1215 14.2274 65.9143 14.0001 65.7381 13.7521C64.8986 15.2606 64.0385 16.0872 62.4425 16.9345C62.3861 16.9549 62.3349 16.9829 62.2811 17.0122C62.2261 17.0422 62.1686 17.0736 62.1005 17.0998L61.9139 16.8208C61.9899 16.7829 62.0659 16.7485 62.1405 16.7146C62.249 16.6655 62.3546 16.6176 62.4528 16.5625C63.8519 15.8186 64.8676 14.713 65.5412 13.3389C65.1059 12.8222 64.6603 12.006 64.4012 11.4481C64.2147 12.6466 63.4788 13.7418 62.4528 14.6924C62.0383 15.085 61.5927 15.4466 61.1159 15.7876C59.8205 16.6658 58.3385 17.3787 56.9601 17.823C56.5456 17.9677 56.1622 18.0813 55.7787 18.195H65.935V48.4063C65.9972 49.1605 66.1423 49.7805 66.3806 50.2764C66.8988 51.4749 67.8212 52.0122 69.1166 51.8882C69.5519 51.7952 69.9353 51.6093 70.2359 51.351C71.0339 50.6174 71.2308 49.3568 70.2359 48.4889C70.1426 48.396 70.0493 48.3443 69.9353 48.2823C69.0752 49.2019 66.8781 48.148 66.505 47.0528L66.8263 46.8151C67.1268 48.0137 69.3032 48.5303 69.8006 47.9723L70.1944 46.5568C69.1166 46.8565 66.619 45.3583 66.7123 44.1081L66.9506 43.5088C66.8366 45.038 69.0648 46.4018 70.2462 46.1745C70.2773 46.1642 70.3136 46.1539 70.3499 46.1435C70.3861 46.1332 70.4224 46.1229 70.4535 46.1125L71.1271 44.976C70.8266 44.976 70.5261 44.914 70.2462 44.8417C68.5984 44.4077 67.2097 42.9716 66.7123 40.3472L66.9195 39.6549C67.3341 41.6284 67.9559 43.6948 70.2359 44.3767C70.3215 44.4052 70.4119 44.4238 70.504 44.4428C70.5457 44.4514 70.5877 44.4601 70.6297 44.4697C71.6751 44.616 72.0146 44.196 72.5456 43.539C72.6147 43.4535 72.687 43.364 72.7646 43.2712C71.6971 43.3952 70.8577 43.1885 70.1944 42.7443ZM68.2979 52.3739C67.8626 53.5517 67.8315 55.4012 68.0181 57.6019C68.8161 61.4042 69.2928 64.1215 69.0337 66.8286C68.7332 70.3312 67.873 72.7489 66.3392 74.805C65.4583 76.0036 64.339 77.0884 62.971 78.2043L64.2665 75.7349L65.3028 73.0899C65.662 72.2905 65.7586 71.3971 65.8531 70.5234C65.8759 70.313 65.8985 70.1038 65.9246 69.8972C65.9682 69.0237 65.8587 68.3149 65.7526 67.6287C65.5813 66.5212 65.4191 65.4724 65.9246 63.8839C64.8733 64.8671 64.9948 65.7672 65.135 66.8054C65.1731 67.0873 65.2126 67.3794 65.2303 67.6861C65.2428 67.9255 65.2646 68.1667 65.2865 68.4087C65.3375 68.971 65.3888 69.5373 65.3235 70.0936C65.1577 71.3437 64.8779 72.6146 64.4426 73.7925C64.0177 75.1047 63.3027 76.5408 62.4217 77.7497C62.0072 78.3283 61.5823 78.8449 61.1056 79.2789H61.0849C60.0485 79.5785 59.1365 79.8368 58.2763 80.0228C58.3871 79.9149 58.4998 79.8077 58.6128 79.7002C58.9544 79.3751 59.2991 79.0471 59.6029 78.6899C60.6023 77.4357 60.6706 76.4958 60.7664 75.1754C60.7858 74.9077 60.8064 74.6243 60.8361 74.3194C60.8776 73.7408 60.9398 73.2035 61.0745 72.6559C61.2092 72.0567 61.4165 71.4781 61.8103 70.8995C61.7375 70.9821 61.6683 71.0587 61.6025 71.1315C61.3967 71.3592 61.2237 71.5507 61.0745 71.7777C60.7014 72.2943 60.4941 72.9556 60.3801 74.6294C60.0796 77.4914 59.2609 78.5659 57.3851 80.1984C57.2618 80.2138 57.1444 80.2405 57.0326 80.266C56.9939 80.2748 56.956 80.2834 56.9187 80.2914C56.1207 80.4567 55.302 80.591 54.4107 80.7357C55.5507 80.0641 56.2865 79.4855 56.9187 78.2353C56.9394 78.1785 56.9679 78.132 56.9964 78.0855C57.0249 78.039 57.0534 77.9925 57.0742 77.9357C57.0479 77.975 57.0092 78.0184 56.9737 78.0581C56.9533 78.081 56.9339 78.1027 56.9187 78.1217C55.8313 79.4968 54.8809 80.0334 53.4022 80.8681L53.2707 80.9423C52.5142 81.0973 51.7369 81.2626 51.0011 81.459C49.6849 81.7999 48.4309 82.2545 47.2702 82.9365C47.2029 82.9826 47.1288 83.0253 47.0534 83.0688C46.943 83.1324 46.8298 83.1976 46.7313 83.2774C46.0577 83.7114 45.4359 84.2486 44.8555 84.8892C44.5757 85.2302 44.3373 85.6331 44.1404 86.0464C43.7901 86.8114 43.554 87.6432 43.3401 88.3966C43.2882 88.5794 43.2376 88.7576 43.187 88.9291L42.0263 88.7741L41.4666 88.7121L41.0521 90.1277L40.337 89.9623L39.7152 89.828C39.6012 90.5719 39.3214 91.4708 38.8135 92.1424C38.5752 92.4834 38.2954 92.7624 37.9948 93C37.6736 92.7624 37.3937 92.4834 37.1554 92.1424C36.6683 91.4502 36.3574 90.5719 36.2537 89.828L35.6319 89.9623L34.9168 90.1277L34.5023 88.7121L33.9427 88.7741L32.7819 88.9291L32.7494 88.8091C32.518 87.955 32.2441 86.9442 31.8285 86.0464C31.642 85.6331 31.3932 85.2302 31.1134 84.8892C30.5331 84.2383 29.9112 83.7114 29.2376 83.2774C29.0718 83.1431 28.8956 83.0398 28.6987 82.9365C27.538 82.2442 26.284 81.7999 24.9678 81.459C24.232 81.273 23.4858 81.087 22.6982 80.9423L22.5155 80.8392C21.066 80.0216 20.125 79.4908 19.0502 78.1217C19.0088 78.0597 18.957 77.9873 18.9155 77.9357C18.9362 77.9925 18.9595 78.039 18.9829 78.0855C19.0062 78.132 19.0295 78.1785 19.0502 78.2353C19.672 79.4855 20.3975 80.0641 21.5789 80.7357C20.6773 80.591 19.8586 80.4567 19.0502 80.2914C18.95 80.2781 18.8541 80.2562 18.7569 80.234C18.7034 80.2218 18.6495 80.2094 18.5942 80.1984C16.7184 78.5556 15.879 77.4914 15.5784 74.6294C15.4644 72.9556 15.2572 72.2943 14.9048 71.7777C14.7696 71.5822 14.6167 71.4131 14.4462 71.2245C14.3553 71.124 14.2595 71.018 14.1586 70.8995C14.5524 71.4781 14.7597 72.0567 14.9048 72.6559C14.9971 73.091 15.0487 73.5261 15.1034 73.9886C15.1163 74.0972 15.1294 74.2074 15.1432 74.3194C15.1684 74.6132 15.1855 74.8871 15.2016 75.1463C15.2848 76.482 15.3436 77.4265 16.3764 78.6899C16.7349 79.1132 17.1535 79.5107 17.5697 79.906L17.6926 80.0228C16.8324 79.8368 15.9308 79.5785 14.9152 79.2789H14.8737C14.397 78.8449 13.9721 78.3283 13.5575 77.7497C12.6766 76.5512 11.9823 75.1047 11.5366 73.7925C11.1014 72.6146 10.8216 71.3437 10.6557 70.0936C10.5871 69.5078 10.642 68.9109 10.6964 68.3193C10.7159 68.1073 10.7353 67.896 10.749 67.6861C10.7686 67.3853 10.8086 67.098 10.8472 66.8205C10.9931 65.7731 11.1197 64.864 10.0547 63.8839C10.5606 65.48 10.3977 66.5317 10.2263 67.6387C10.1203 68.3231 10.0111 69.0287 10.0547 69.8972C10.0855 70.1259 10.1117 70.3578 10.138 70.5906C10.2352 71.4519 10.3338 72.3253 10.6765 73.0899L11.7128 75.7349L13.029 78.2043C11.6506 77.0884 10.5521 76.0139 9.64011 74.805C8.12703 72.7489 7.26685 70.3415 6.94558 66.8286C6.68649 64.1215 7.18394 61.4145 7.96121 57.6019C8.14775 55.4115 8.11666 53.562 7.70212 52.3739C8.70739 52.0742 9.14266 52.5598 9.36029 53.4484C9.60491 52.9216 9.61857 52.4317 9.63678 51.7786L9.64011 51.6609C9.66084 51.5989 9.66084 51.5266 9.66084 51.4749C10.2619 52.1465 10.4588 52.8905 10.0961 53.7687L9.64011 54.7812L9.36029 55.4735L8.91466 58.0566C8.97753 57.9889 9.04041 57.9224 9.10269 57.8565C9.29706 57.651 9.48565 57.4516 9.65047 57.2403L9.71266 57.1783L10.179 56.2588C10.1863 56.4766 10.2179 56.6982 10.2495 56.9201C10.3079 57.3297 10.3664 57.7402 10.2723 58.1289C10.1604 58.5321 9.97709 58.8285 9.77571 59.154C9.73457 59.2206 9.69267 59.2883 9.65047 59.3584C9.62975 59.4204 9.58829 59.4927 9.53647 59.5651L9.44869 59.7134C8.0012 62.1595 7.96786 62.2159 8.30321 65.1134C8.7903 64.7931 9.16339 64.2765 9.4432 63.5223C9.4286 63.3767 9.405 63.2619 9.38326 63.1562C9.3433 62.9618 9.30965 62.7981 9.34993 62.5304C9.39138 62.3857 9.50538 62.2514 9.62974 62.1171C9.67018 62.0793 9.71122 62.0434 9.75154 62.0081C9.87655 61.8986 9.99449 61.7953 10.065 61.6625C10.065 61.4495 10.0087 61.2469 9.95429 61.0511C9.85559 60.696 9.76304 60.363 10.0236 60.03L10.4588 59.4101C10.5484 60.046 10.6288 60.426 10.7133 60.8247C10.7852 61.1645 10.8601 61.518 10.9459 62.0551C10.9697 62.1792 10.9949 62.3363 11.0227 62.5094C11.1035 63.0138 11.2061 63.654 11.3605 64.0079C11.5027 64.3574 11.6765 64.6301 11.84 64.8864C12.1887 65.4333 12.4899 65.9057 12.3346 66.8906C12.301 67.0862 12.2636 67.2813 12.2259 67.4778C11.9729 68.7964 11.7081 70.1767 12.5108 72.191L13.1119 73.4205L13.5575 73.0072L13.6715 72.8936C13.6532 72.8753 13.639 72.8511 13.6243 72.8261C13.6057 72.7944 13.5865 72.7617 13.5575 72.7386C12.9046 71.7282 13.2138 71.0376 13.5029 70.3918C13.5213 70.3507 13.5396 70.3099 13.5575 70.2692V70.2485C13.6508 69.7939 13.6715 68.9777 13.5575 68.4921C13.5575 68.4725 13.5529 68.4576 13.548 68.4419C13.5426 68.4243 13.5368 68.4057 13.5368 68.3784C13.5368 68.3887 13.542 68.3939 13.5472 68.3991C13.5524 68.4042 13.5575 68.4094 13.5575 68.4197C13.8788 68.9363 14.4384 69.7939 14.7597 70.2692C14.8012 70.3622 14.853 70.4242 14.9152 70.4758L14.9943 70.5952C15.2709 71.0119 15.5542 71.4387 15.7339 71.8913C15.8845 72.3083 15.9472 72.6513 16.0204 73.0505C16.0378 73.1459 16.0559 73.2446 16.0759 73.3482C16.2031 73.8207 16.2543 74.2776 16.3031 74.7128C16.3855 75.4482 16.4611 76.122 16.8842 76.7061C18.0864 78.1423 18.0035 77.2434 17.6304 76.2722C17.6686 76.1876 17.7381 76.1064 17.8083 76.0245C17.9094 75.9063 18.012 75.7865 18.0242 75.6523C18.0365 75.4322 17.9617 75.3134 17.8792 75.1824C17.8223 75.0921 17.7618 74.9959 17.7237 74.8567L17.4646 73.7201C17.6748 73.962 17.8787 74.2085 18.0825 74.4548C18.401 74.84 18.7192 75.2248 19.0606 75.5903C19.299 75.8486 19.527 76.0759 19.7964 76.3032C20.3143 76.784 20.7707 77.142 21.2982 77.5557C21.3828 77.6221 21.4693 77.69 21.5582 77.76C21.7609 77.923 21.9389 78.1395 22.1182 78.3576C22.223 78.4851 22.3282 78.6131 22.4391 78.7313C22.6464 78.9379 23.1646 79.2169 23.4755 79.3305C23.9418 79.5165 24.4704 79.7231 24.9575 79.9091L25.0547 79.9436C26.2783 80.377 27.5374 80.823 28.6883 81.3866C28.8749 81.4796 29.0614 81.5726 29.2272 81.6656C30.2014 82.2029 31.0823 82.8228 31.8181 83.639C32.0015 83.8219 32.1687 84.0452 32.334 84.2659L32.3985 84.352C33.0721 85.3645 33.5385 86.3461 33.839 87.3586L33.9323 87.338L35.6216 87.1313H35.663L35.8081 88.4435L37.0828 88.2575C37.0828 88.5158 37.1036 88.7431 37.145 88.9911C37.2797 89.8074 37.6321 90.4686 37.9845 90.6339C38.3057 90.479 38.6788 89.8177 38.8032 88.9911L38.8114 88.9446L38.8251 88.8698C38.8609 88.6745 38.8965 88.4802 38.8965 88.2575L40.1505 88.4435L40.3059 87.1313H40.3474L42.0366 87.338L42.1299 87.3586C42.4304 86.3461 42.9072 85.3645 43.5911 84.352C43.7673 84.1143 43.9642 83.8663 44.1508 83.639C44.8866 82.8228 45.7675 82.2029 46.7417 81.6656C46.8246 81.6191 46.9179 81.5726 47.0111 81.5261C47.1044 81.4796 47.1977 81.4331 47.2806 81.3866C48.3523 80.8708 49.5064 80.4535 50.6107 80.0543L50.6119 80.0538L50.6273 80.0483C50.7561 80.0017 50.8842 79.9554 51.0115 79.9091C51.4161 79.7639 51.808 79.6061 52.1824 79.4554L52.3491 79.3883L52.4935 79.3305C52.794 79.2169 53.3122 78.9379 53.5298 78.7313C53.6337 78.6206 53.7351 78.5012 53.8366 78.3818C54.0287 78.1556 54.2212 77.9291 54.4314 77.76C54.6295 77.5955 54.8171 77.4445 55.0002 77.2972C55.3918 76.982 55.7629 76.6834 56.1725 76.3032C56.4285 76.099 56.6541 75.8545 56.8894 75.5995L56.898 75.5903C57.327 75.1308 57.7317 74.641 58.1307 74.1581C58.2522 74.0111 58.3731 73.8648 58.494 73.7201L58.2349 74.8567C58.2078 75.0053 58.1472 75.1068 58.0892 75.204C58.0141 75.3298 57.9434 75.4483 57.9551 75.6523C57.9551 75.7972 58.0591 75.919 58.1614 76.0389C58.2269 76.1156 58.2917 76.1915 58.3281 76.2722C57.955 77.2434 57.8825 78.1423 59.095 76.7061C59.5126 76.1362 59.5837 75.471 59.6614 74.7449C59.709 74.2996 59.7591 73.8313 59.893 73.3482C59.9301 73.1734 59.9573 73.0117 59.9836 72.8557C60.0381 72.5322 60.0885 72.2329 60.2143 71.8913C60.4009 71.4057 60.7325 70.9201 61.0538 70.4758L61.0693 70.4528L61.0855 70.429C61.1198 70.3787 61.1571 70.324 61.1885 70.2692C61.5098 69.8042 62.0694 68.9363 62.3907 68.4197C62.4114 68.3991 62.4114 68.3991 62.4114 68.3784C62.4114 68.4197 62.4114 68.4404 62.3907 68.4921C62.2767 68.9777 62.2974 69.8043 62.3907 70.2485V70.2692C62.4105 70.315 62.4308 70.3608 62.4512 70.4067C62.7385 71.056 63.0391 71.7351 62.3907 72.7386C62.3699 72.7799 62.3285 72.8522 62.2767 72.8936L62.3907 73.0072L62.857 73.4205L63.4374 72.191C64.2547 70.2069 63.9906 68.8303 63.7418 67.5339C63.7004 67.318 63.6594 67.1044 63.6239 66.8906C63.4586 65.8944 63.757 65.4202 64.111 64.8576C64.2673 64.6091 64.4345 64.3434 64.5774 64.0079C64.7639 63.5429 64.9194 62.5511 64.9919 62.0551C65.0728 61.5532 65.1479 61.2127 65.2188 60.891C65.3113 60.4709 65.3968 60.083 65.479 59.4101L65.9143 60.03C66.1943 60.3623 66.0969 60.6904 65.9918 61.0444C65.9335 61.2407 65.8728 61.445 65.8728 61.6625C65.9559 61.8097 66.0964 61.9323 66.2505 62.0667L66.3081 62.1171C66.4428 62.2514 66.5672 62.3754 66.5879 62.5304C66.6268 62.7891 66.6008 62.9507 66.5707 63.1368C66.5528 63.2479 66.5335 63.3677 66.5257 63.5223C66.7848 64.2765 67.1475 64.7931 67.645 65.1134C67.9802 62.2273 67.947 62.1699 66.5308 59.7174L66.4428 59.5651C66.4036 59.4771 66.3552 59.4169 66.315 59.367L66.3081 59.3584L66.2815 59.316C66.0348 58.9228 65.8371 58.6077 65.707 58.1289C65.5896 57.7047 65.6592 57.2546 65.7282 56.8079C65.7567 56.6236 65.7851 56.4398 65.8003 56.2588L66.2459 57.1783L66.3081 57.2403C66.4417 57.4202 66.6055 57.5914 66.7717 57.7652C66.8633 57.8609 66.9555 57.9574 67.0439 58.0566L66.6086 55.4735L66.3081 54.7812L65.8625 53.7687C65.4894 52.8905 65.6966 52.1259 66.2977 51.4749C66.2977 51.5074 66.3034 51.5426 66.3088 51.5762C66.3137 51.6069 66.3185 51.6363 66.3185 51.6609C66.3247 51.7683 66.3295 51.8713 66.3342 51.9706C66.3605 52.5304 66.3813 52.9745 66.619 53.4484C66.8263 52.5598 67.2823 52.0742 68.2979 52.3739ZM10.5003 74.5777C10.0857 73.5858 9.82665 72.7489 9.66084 72.005C9.32835 70.4305 9.45587 69.3478 9.5782 68.3092C9.60839 68.0529 9.63827 67.7992 9.66084 67.5415C9.70229 67.0869 9.72302 66.6426 9.66084 66.1467C9.64011 65.8884 9.59865 65.6094 9.52611 65.3304C9.55888 66.3469 9.36006 67.1696 9.16748 67.9664C8.81199 69.4373 8.47775 70.8202 9.66084 73.1725C9.69851 73.2379 9.7367 73.3045 9.77565 73.3724C9.98317 73.7344 10.2123 74.134 10.5003 74.5777ZM14.1897 72.0567C14.2819 73.0826 14.2258 73.8219 14.1783 74.4475C14.0924 75.5795 14.0347 76.3388 14.9359 77.7497C15.1224 78.07 15.3815 78.4419 15.7132 78.8449C15.3401 78.2456 15.0913 77.7084 14.9359 77.2021C14.5979 76.2322 14.5864 75.4312 14.5749 74.6385C14.5631 73.8268 14.5515 73.0237 14.1897 72.0567ZM19.0813 76.7475C19.5913 78.3778 20.7021 79.0751 21.974 79.8735C22.3303 80.0971 22.6993 80.3288 23.0713 80.591C22.4892 79.9895 21.9692 79.6158 21.5057 79.2828C20.6158 78.6433 19.9344 78.1537 19.4233 76.4892L19.0813 76.0965L18.9673 75.9622L18.988 76.4168C19 76.4566 19.0104 76.4979 19.0211 76.5402C19.0382 76.6077 19.0558 76.6776 19.0813 76.7475ZM57.0016 76.4272L57.0431 75.9726L56.9083 76.1069L56.5663 76.4995C56.0778 78.1637 55.3937 78.6497 54.5026 79.2828C54.0327 79.6166 53.5052 79.9914 52.9184 80.6014C53.2949 80.3358 53.67 80.1017 54.0324 79.8755C55.306 79.0806 56.4243 78.3825 56.9083 76.7578C56.9305 76.6914 56.9468 76.6279 56.9619 76.569C56.975 76.5179 56.9872 76.4703 57.0016 76.4272ZM61.7999 72.0567C61.4368 73.0275 61.4264 73.833 61.416 74.6493C61.4059 75.4403 61.3956 76.2413 61.0641 77.2124C60.8983 77.698 60.6288 78.2456 60.2661 78.8449C60.5874 78.4316 60.8465 78.0803 61.0641 77.7497C61.9573 76.3409 61.8988 75.5775 61.8122 74.4479C61.7642 73.8212 61.7075 73.0817 61.7999 72.0567ZM66.4635 65.3097C66.4014 65.5887 66.3495 65.8677 66.3288 66.1053C66.2666 66.6219 66.2874 67.0765 66.3288 67.5208C66.3515 67.7816 66.3815 68.0383 66.4118 68.2975C66.534 69.3425 66.661 70.4279 66.3288 71.9843C66.1837 72.7283 65.9143 73.5755 65.5101 74.5571C65.8314 74.0404 66.1112 73.5652 66.3288 73.1415C67.5234 70.7798 67.1885 69.404 66.8295 67.9297C66.6373 67.1401 66.4382 66.3223 66.4635 65.3097ZM71.7593 40.4608C73.459 40.6468 73.6766 39.6446 73.4279 38.9833C73.1273 38.2704 72.1117 37.9398 71.635 39.1383L71.4484 38.8593C71.3137 37.9811 72.6091 37.5472 73.3035 37.9088C74.1118 38.3944 74.4849 39.7789 73.604 40.5952C73.1584 40.9878 72.3501 41.1738 71.3759 40.9878C70.9302 40.8431 70.5157 40.5022 70.1944 39.9752C69.9353 39.5619 69.7177 39.0763 69.5726 38.4667C68.8161 35.646 69.0337 31.3685 70.1944 29.1161C70.7126 28.1242 71.3966 27.5249 72.2568 27.6386C72.3604 26.6467 71.1375 25.6961 70.1944 26.0888C69.8731 26.2231 69.5933 26.5021 69.3964 26.9877C69.0716 27.7708 69.0221 28.4716 68.975 29.1381C68.9575 29.3861 68.9403 29.6294 68.9093 29.8703H68.7124C68.7124 26.626 69.0337 24.0843 70.1944 21.9869C70.3602 21.6666 70.5882 21.336 70.7955 21.0363C72.4122 18.7736 75.5006 20.3854 74.3709 22.3279C73.6973 23.2991 72.7439 23.1234 72.1946 22.5345L72.319 22.1212C72.5262 22.2865 73.2413 22.8548 73.7802 22.2142C74.8166 20.8813 72.7853 20.0858 71.7904 20.84C70.4121 21.8526 70.6297 24.2393 72.6299 24.5183C74.6508 24.9109 76.0602 23.4231 75.998 21.3256C75.7597 18.412 71.8215 17.7197 70.1737 19.3625C70.0597 19.4762 69.9664 19.6002 69.8732 19.7345C68.4326 21.9972 68.0595 23.5574 67.7383 27.6489C67.6243 29.705 67.5828 31.6475 67.7383 33.6416C67.8523 35.3774 68.0803 37.1442 68.5155 39.0763H68.5363C68.8161 40.3679 69.3757 41.3701 70.1737 41.99C70.9199 42.5893 71.9355 42.8269 73.1273 42.5686C78.1847 40.6778 74.3709 34.4888 70.9199 37.4748C70.2462 38.0534 70.153 40.0889 71.7593 40.4608ZM38.8239 83.2258C39.3421 83.6597 39.6841 84.4759 39.6841 85.4162C39.6841 86.3667 39.3421 87.1727 38.8239 87.6066C38.5855 87.8132 38.3368 87.9269 38.0466 87.9269H38.0052H37.9637C37.6632 87.9269 37.4041 87.8132 37.1657 87.6066C36.6476 87.183 36.3056 86.3564 36.3056 85.4162C36.3056 84.4656 36.6476 83.6597 37.1657 83.2258C37.4041 83.0398 37.6528 82.9055 37.9637 82.9055H38.0052H38.0466C38.3368 82.9055 38.5959 83.0398 38.8239 83.2258ZM38.6892 85.4265C38.6892 84.7756 38.4301 84.2693 37.9948 84.2693C37.5596 84.2693 37.2797 84.7859 37.2797 85.4265C37.2797 86.0464 37.5596 86.5837 37.9948 86.5837C38.4405 86.5837 38.6892 86.0464 38.6892 85.4265ZM40.3992 17.7507C40.3888 17.7507 40.3836 17.7559 40.3784 17.761C40.3733 17.7662 40.3681 17.7714 40.3577 17.7714C39.8706 18.009 39.3524 18.2053 38.8239 18.3293C38.5441 18.4223 38.2643 18.4843 38.0052 18.5359C37.7461 18.4739 37.4456 18.4016 37.1657 18.3293C36.6786 18.195 36.1501 18.009 35.6319 17.7714C35.6216 17.7714 35.6164 17.7662 35.6112 17.761C35.606 17.7559 35.6008 17.7507 35.5905 17.7507C35.6008 17.7507 35.606 17.7455 35.6112 17.7404C35.6164 17.7352 35.6216 17.73 35.6319 17.73C36.2537 17.3374 36.7926 16.7175 37.1657 16.0356C37.1826 15.9963 37.2002 15.9578 37.2178 15.9195C37.265 15.8165 37.3117 15.7145 37.3419 15.6016C37.3626 15.7979 37.3626 14.7234 37.3626 14.7234C37.3212 14.9093 37.2486 15.0953 37.1761 15.24C36.803 15.9529 36.2537 16.5315 35.6423 16.9551C35.4039 17.1204 35.1759 17.2754 34.9272 17.3891C34.5852 17.2031 34.2536 16.9551 33.953 16.6968C33.6939 16.4902 33.466 16.2422 33.2587 15.9839C33.466 15.9839 33.6732 15.9839 33.8598 15.9632H33.953C34.409 15.8702 34.9894 15.6843 35.4661 15.3846C35.5283 15.3226 35.5801 15.271 35.6423 15.2193C36.2641 14.5684 36.6372 13.5765 36.3159 12.7189C36.1812 12.4193 35.9739 12.1403 35.6423 11.9233C35.435 11.7684 35.1552 11.665 34.8236 11.5824C34.9452 11.542 35.0668 11.5055 35.1867 11.4695C35.3427 11.4226 35.4958 11.3767 35.6423 11.3241C36.1605 11.1691 36.6787 11.0864 37.1761 11.0244C37.4145 11.0038 37.6321 11.0038 37.8705 11.0038H37.9326H37.9741H38.0155H38.057H38.0985H38.1399C38.3783 11.0038 38.6063 11.0038 38.8343 11.0244C39.3525 11.0864 39.8499 11.1691 40.3681 11.3241C40.5146 11.3767 40.6677 11.4226 40.8237 11.4695C40.9436 11.5055 41.0652 11.542 41.1868 11.5824C40.8655 11.6754 40.6064 11.7684 40.3681 11.9233C40.0468 12.13 39.8292 12.409 39.6945 12.7189C39.3732 13.5765 39.7566 14.5684 40.3681 15.2193C40.4006 15.2517 40.4359 15.2813 40.4697 15.3095C40.5004 15.3353 40.5299 15.36 40.5546 15.3846C41.0003 15.6843 41.591 15.8702 42.0366 15.9632H42.1299C42.3164 15.9839 42.5237 15.9839 42.731 15.9839C42.5444 16.2422 42.2957 16.4902 42.0366 16.6968C41.7568 16.9551 41.4148 17.1824 41.0624 17.3891C40.8241 17.2754 40.5961 17.1308 40.3474 16.9551C39.7463 16.5212 39.1866 15.9426 38.8135 15.24C38.7963 15.197 38.7754 15.1504 38.754 15.1025C38.7239 15.0352 38.6927 14.9654 38.6685 14.899L38.6581 15.6636C38.6857 15.7463 38.7226 15.8289 38.7594 15.9116C38.7779 15.9529 38.7963 15.9942 38.8135 16.0356C39.1866 16.7278 39.7152 17.3477 40.3474 17.73C40.3655 17.724 40.3731 17.7321 40.3803 17.7398C40.3855 17.7453 40.3905 17.7507 40.3992 17.7507ZM38.0052 12.9152C38.3783 12.8946 38.6581 12.8222 38.8239 12.7086C39.2384 12.4503 39.197 11.9957 38.8239 11.7167C38.6374 11.5617 38.3472 11.4377 38.0052 11.4377C37.6321 11.4377 37.3523 11.572 37.1657 11.7167C36.7926 11.9957 36.7512 12.4503 37.1657 12.7086C37.3419 12.8222 37.6217 12.8946 38.0052 12.9152ZM40.0054 2.47972C39.8498 2.4634 39.7007 2.44062 39.5427 2.41649C39.5007 2.41008 39.4581 2.40357 39.4146 2.39707C38.9275 3.58527 38.6581 4.7838 38.5337 5.92034C38.3886 7.52183 38.5234 9.05099 38.7306 10.3528L38.7591 10.3554C38.9785 10.3753 39.2065 10.3959 39.425 10.4355C39.6945 10.4665 39.9535 10.4975 40.1712 10.5492C40.3163 9.65026 40.6064 8.53438 40.9795 7.38751C41.4459 5.98234 42.0884 4.5255 42.8139 3.34763C42.8657 3.26497 42.9175 3.19265 42.9901 3.10999C42.9486 3.10079 42.9112 3.08956 42.8761 3.079C42.8322 3.06583 42.792 3.05373 42.7517 3.04799C41.8397 2.80002 40.9277 2.60371 40.0054 2.47972ZM54.9496 22.4622L55.188 22.5965L55.4885 22.8031L55.7891 23.1751L56.0689 23.4954C56.0689 23.4747 56.1829 23.5884 56.1829 23.5884L56.3694 23.4747L56.6907 23.3197L56.8772 23.1544L56.8151 22.9891C56.8151 22.9891 56.5352 22.6482 56.4212 22.5965C56.3176 22.5345 55.9549 22.1625 55.9549 22.1625C55.7683 21.9042 54.9807 22.1212 54.96 22.3485C54.9496 22.3898 54.9496 22.4415 54.9496 22.4622ZM51.0736 24.5079L51.312 24.6216L51.7784 24.7559H52.1204L52.6593 24.3633L53.9754 23.671L54.7423 23.2578L55.0014 22.9994L54.9392 22.9065L54.8253 22.7928L54.5869 22.5552L54.4004 22.5345L54.162 22.7205L51.4675 24.136L51.0944 24.3736L51.0736 24.5079ZM50.058 25.0555L50.4 25.1692L50.7938 25.2829L51.1151 25.7685L51.4571 26.1404C51.4778 26.1198 51.5918 26.2541 51.5918 26.2541L51.9338 25.9958L52.0893 25.8098V25.7995L52.5971 25.4998L53.4573 25.0142L54.1724 24.5389L55.074 24.0947L55.2398 23.95L55.074 23.6917L54.6594 23.578L54.3589 23.733L53.5194 24.167L52.68 24.6423L51.6022 25.1899L51.5193 25.1072L51.0529 24.7146L50.7938 24.6009L50.0995 24.9936L50.058 25.0555ZM50.7627 26.1714L50.6176 25.8511H50.4311L50.0166 26.1094L49.3637 26.4814L48.6693 26.8224L47.9542 27.2563L47.3324 27.5559L47.1251 27.7109L47.2184 27.8762L47.3531 28.1759L47.5086 28.3205L47.6018 28.3618L48.0371 28.1035C48.0371 28.1035 48.5553 27.8246 48.6589 27.7109C48.7626 27.5973 49.5813 27.1943 49.5813 27.1943L50.856 26.595L50.8975 26.3884L50.7627 26.1714ZM46.2546 26.998L46.3168 27.1117L46.638 27.277L47.0111 27.4629L47.55 27.1427L48.4102 26.657L49.1253 26.1818L50.0269 25.7375L50.1927 25.5928L50.0269 25.3345L49.6124 25.2209L49.3118 25.3655L48.4724 25.7995L47.6329 26.2747L46.5344 26.8327L46.2546 26.998ZM45.2079 27.5973C45.2356 27.6594 45.2957 27.6662 45.3573 27.6731C45.3879 27.6765 45.4188 27.68 45.4462 27.6903C45.8499 27.9043 45.8906 27.9836 46.0461 28.2868C46.0782 28.3494 46.1152 28.4216 46.1613 28.5065C46.1734 28.5246 46.1917 28.5761 46.2141 28.6393C46.2684 28.7925 46.347 29.0141 46.4204 28.9921C46.5047 28.9921 46.5646 28.9355 46.6256 28.878C46.6621 28.8435 46.699 28.8087 46.7417 28.7855C46.7984 28.7604 46.8512 28.7314 46.9025 28.7033C46.9357 28.6852 46.9682 28.6674 47.0008 28.6511C47.0932 28.6051 47.0826 28.5932 47.0455 28.552C47.0327 28.5378 47.0167 28.52 47.0008 28.4962L46.9797 28.4649C46.9431 28.411 46.9041 28.3534 46.8868 28.3102L46.8497 28.2432L46.8215 28.192C46.5947 27.779 46.4052 27.434 45.9126 27.2356C45.8751 27.2169 45.812 27.249 45.7697 27.2706L45.7571 27.277C45.7088 27.2976 45.6592 27.3172 45.6097 27.3367C45.5107 27.3757 45.4117 27.4147 45.3219 27.4629C45.27 27.4836 45.1871 27.5456 45.2079 27.5973ZM45.8297 28.7958C45.819 28.7719 45.8097 28.748 45.8006 28.7244C45.7741 28.6563 45.7488 28.5912 45.695 28.5375C45.6328 28.5168 45.5602 28.5168 45.5084 28.5582C45.4185 28.6173 45.3339 28.6743 45.2516 28.7297C44.8883 28.9745 44.5711 29.1883 44.0471 29.4157C43.978 29.4536 43.909 29.4892 43.8399 29.5248C43.7017 29.596 43.5635 29.6672 43.4253 29.7567C43.3476 29.8032 43.2777 29.8548 43.2077 29.9065C43.1377 29.9582 43.0678 30.0098 42.9901 30.0563C42.8281 30.1501 42.6582 30.2202 42.491 30.2892C42.3266 30.3571 42.1649 30.4239 42.0159 30.5109C41.9537 30.5316 41.8501 30.6039 41.8501 30.6763C41.8501 30.7479 41.8953 30.7949 41.9418 30.8431C41.969 30.8714 41.9967 30.9002 42.0159 30.9346C42.0271 30.9598 42.0368 30.9834 42.0463 31.0064C42.0716 31.0683 42.0949 31.1251 42.1402 31.1929C42.161 31.2135 42.1817 31.2342 42.2335 31.2342C42.2542 31.2239 42.2698 31.2084 42.2866 31.1916C42.3035 31.1748 42.3216 31.1567 42.3475 31.1412C42.5046 31.0527 42.6572 30.9597 42.8172 30.8622C42.8999 30.8117 42.9846 30.7601 43.073 30.7073C43.1858 30.6375 43.354 30.556 43.534 30.4689C43.8334 30.324 44.1651 30.1635 44.327 30.015C44.3459 29.9961 44.3562 29.9708 44.3667 29.945C44.3792 29.9141 44.3921 29.8825 44.4202 29.86C44.7001 29.674 45.1664 29.4674 45.4773 29.3434C45.5312 29.3219 45.5814 29.3041 45.6295 29.2871C45.7202 29.255 45.8038 29.2253 45.8919 29.1781C45.9333 29.1574 45.9851 29.1161 45.954 29.0438C45.9333 28.9921 45.8815 28.8785 45.8297 28.7958ZM40.9795 29.891L40.9811 29.892C40.9801 29.8919 40.9795 29.8916 40.9795 29.891ZM40.9811 29.892L41.3215 30.0977L41.5599 30.263L41.819 30.201C41.9513 30.1119 42.0816 30.0186 42.212 29.9252C42.4903 29.7259 42.7696 29.5258 43.073 29.3641C43.2488 29.2685 43.4382 29.2029 43.6302 29.1365C43.8116 29.0737 43.9952 29.0102 44.1715 28.9198C44.2409 28.8879 44.2883 28.834 44.3364 28.7794C44.3816 28.728 44.4274 28.6759 44.4928 28.6408C44.5606 28.594 44.6417 28.5786 44.7239 28.563C44.8049 28.5476 44.8871 28.532 44.9591 28.4858L45.3011 28.2792L45.1768 28.0725C45.1306 28.0513 45.0857 28.0204 45.0412 27.9898C44.9557 27.9309 44.8716 27.873 44.783 27.8866C44.5839 27.9276 44.403 28.0458 44.2282 28.1599C44.1392 28.2181 44.0517 28.2752 43.9642 28.3205C43.8813 28.367 43.7958 28.4032 43.7103 28.4393C43.6248 28.4755 43.5393 28.5117 43.4564 28.5582C43.2491 28.6718 43.0419 28.7958 42.8553 28.9301C42.6792 29.0644 42.5133 29.1884 42.3372 29.3021L41.6635 29.6224C41.6741 29.6066 41.4967 29.6818 41.3199 29.7568C41.159 29.8251 40.9985 29.8931 40.9811 29.892ZM39.7774 30.4283C40.5235 30.7279 40.8552 31.1619 41.2179 31.8231L41.7983 31.5442C41.6324 30.8932 41.1039 30.2526 40.451 30.0873L39.7774 30.4283ZM39.987 31.5516C39.9233 31.5913 39.8648 31.6277 39.8292 31.6475L40.5443 32.1124L40.8034 31.9265C40.7169 31.8333 40.6512 31.7506 40.5943 31.6789C40.4808 31.536 40.4025 31.4374 40.2644 31.3892C40.2069 31.4147 40.09 31.4875 39.987 31.5516ZM38.8032 31.0689L39.4561 31.4408L39.995 31.1205L39.5494 30.6866L39.3835 30.7073L38.8032 31.0689ZM36.2745 30.077C35.6216 30.2423 35.1138 30.8932 34.9272 31.5338L35.5283 31.8128C35.8703 31.1412 36.2019 30.7176 36.9481 30.418L36.2745 30.077ZM31.9114 27.8039C31.7041 27.7626 31.2896 27.9692 31.2378 28.2585C31.8515 28.5978 32.7432 29.0472 33.5807 29.4692C34.1714 29.767 34.7351 30.0511 35.1552 30.2733L35.3936 30.108L35.8081 29.8703C35.3527 29.6433 33.8177 28.8221 32.8096 28.2829L32.8089 28.2824C32.3491 28.0365 31.9991 27.8492 31.9114 27.8039ZM31.1549 28.4962C30.6885 28.6511 30.7403 29.1884 30.7818 29.2091C30.8935 29.2708 31.0806 29.375 31.3138 29.5048C32.2912 30.0493 34.0775 31.0443 34.5127 31.2445C34.5334 31.2445 34.5541 31.2239 34.5748 31.2032C34.637 31.1102 34.6681 31.0379 34.6992 30.9449C34.7208 30.9126 34.7486 30.8841 34.7758 30.8562C34.8268 30.8039 34.8754 30.754 34.8754 30.6866C34.8826 30.5502 33.2583 29.6603 32.1448 29.0504C31.6559 28.7825 31.2655 28.5687 31.1549 28.4962ZM30.8025 27.2253C30.2222 27.4113 29.7558 28.1965 29.5485 28.6202C29.7676 28.7217 29.9215 28.8183 30.0362 28.8903C30.1548 28.9647 30.2315 29.0128 30.2947 29.0128C30.4812 28.1759 31.1134 27.7213 31.4969 27.5973C31.5176 27.5559 31.4347 27.4836 31.3621 27.4629C31.3311 27.4216 30.8958 27.2046 30.8025 27.2253ZM29.6211 27.6903L29.4138 27.5353C28.3774 27.0703 27.2167 26.3781 26.2425 25.7788C25.9213 25.7995 25.7762 26.2334 25.828 26.5124C26.8229 26.9773 27.7971 27.5456 28.7298 28.1035L29.2376 28.4238C29.2998 28.1552 29.4034 27.9279 29.6211 27.6903ZM26.968 25.1175C26.6467 25.1589 26.2322 25.3552 26.626 25.6755C27.5069 26.106 28.4311 26.6514 29.2964 27.162C29.4695 27.2641 29.6401 27.3648 29.8076 27.4629C29.9423 27.277 30.1807 27.122 30.4605 26.9877L30.1807 26.8224C29.6029 26.5314 28.9856 26.1978 28.3714 25.866C27.8951 25.6086 27.4207 25.3522 26.968 25.1175ZM25.9316 24.5699C25.3927 24.7353 24.7916 25.4068 24.6569 25.8821L24.8124 25.9958L25.372 26.2541C25.5793 25.3965 26.2529 25.0039 26.6467 24.9419L25.9316 24.5699ZM24.688 25.2209L24.9264 25.1072L24.8849 24.9936L24.5118 24.7559L21.8173 23.3507L21.496 23.1854C21.2162 23.3404 21.0608 23.4437 21.0089 23.7434C21.8069 24.1153 23.4237 24.8799 24.2424 25.3552L24.688 25.2209ZM21.6204 23.1131C22.4184 23.4851 24.0351 24.2496 24.8538 24.7249L25.2995 24.5906L25.5378 24.4769L25.4964 24.3633L25.1233 24.1257L22.4495 22.7205L22.1282 22.5552C21.838 22.7205 21.6826 22.8135 21.6204 23.1131ZM19.7342 23.1648L20.5944 23.6504C20.7602 23.1131 21.4131 22.5345 21.7758 22.3382C21.7551 22.2245 21.04 21.9249 20.9778 21.9249C20.5426 21.9869 20.0762 22.4828 19.8379 22.8755L19.7342 23.1648ZM18.1778 22.386C18.5091 22.5543 18.8558 22.7305 19.2057 22.9478C19.185 22.7618 19.3922 22.5758 19.6202 22.4105C19.6202 22.3485 17.6201 21.3153 17.4231 21.2533C17.1226 21.0983 16.8013 21.6666 17.0293 21.7699L17.4128 21.9766C17.6534 22.1196 17.9106 22.2502 18.1778 22.386ZM18.045 40.4815C18.045 40.7535 18.1731 40.7407 18.3716 40.7207L18.387 40.7191L18.4069 40.7167C18.5668 40.6968 18.736 40.6758 18.9051 40.6262C18.9445 40.6144 18.9813 40.6056 19.0154 40.5974C19.1606 40.5627 19.257 40.5396 19.299 40.3472C19.3239 40.2788 19.3413 40.2066 19.3581 40.1375C19.3691 40.0918 19.3798 40.0474 19.3922 40.0062C19.4022 39.932 19.4073 39.8648 19.4123 39.8002C19.4177 39.73 19.4229 39.6629 19.4337 39.5929C19.444 39.5464 19.47 39.5103 19.4959 39.4741C19.5218 39.438 19.5477 39.4018 19.558 39.3553C19.558 39.3346 19.558 39.2933 19.5373 39.2623C19.5373 39.2416 19.5166 39.221 19.5166 39.221C19.4751 39.1796 19.4233 39.159 19.3922 39.159C19.0566 39.1962 18.7461 39.2584 18.423 39.3232L18.3144 39.345C18.303 39.345 18.2917 39.3512 18.2752 39.3602C18.2616 39.3676 18.2445 39.377 18.2211 39.3863C18.1361 39.4711 18.1114 39.5988 18.092 39.6989L18.0864 39.7273L18.0765 39.8625C18.0596 40.0924 18.045 40.2906 18.045 40.4815ZM18.9926 42.9751C19.0174 42.9698 19.0405 42.9649 19.0606 42.9612C19.0828 42.9538 19.1119 42.9449 19.1458 42.9344C19.3973 42.8567 19.9158 42.6965 19.8793 42.4963C19.8379 42.362 19.786 42.238 19.7239 42.1243C19.6889 42.0604 19.6375 42.0096 19.5846 41.9571C19.5433 41.9163 19.5011 41.8744 19.4648 41.8247C19.2782 41.5457 19.2264 41.4321 19.2264 41.1118C19.2264 40.7551 18.8971 40.9213 18.6315 41.0554C18.5508 41.0961 18.476 41.1338 18.418 41.1531C18.159 41.2461 18.0242 41.2977 18.045 41.6387C18.045 41.804 18.0657 42.0107 18.1382 42.1966C18.1481 42.2262 18.1793 42.2417 18.2114 42.2576C18.2465 42.2751 18.2829 42.2932 18.2937 42.331C18.3231 42.3846 18.3455 42.4406 18.3675 42.4956C18.3922 42.5571 18.4163 42.6174 18.4491 42.6719C18.4592 42.6939 18.4684 42.7163 18.4776 42.7386C18.5161 42.8316 18.5541 42.9236 18.646 42.9819C18.7229 43.0329 18.877 42.9999 18.9926 42.9751ZM20.7395 43.2092C20.6773 43.2092 20.3249 43.0232 20.3249 43.0232C19.8906 42.919 19.6747 43.0326 19.3479 43.2046C19.2536 43.2542 19.1501 43.3087 19.0295 43.3642L19.0156 43.3687C18.9555 43.3882 18.8814 43.4123 18.843 43.4985C18.8245 43.5353 18.8717 43.5803 18.897 43.6043L18.9051 43.6122L18.9227 43.6299L18.9343 43.6418L18.9601 43.6686C19.0297 43.7413 19.0942 43.8087 19.185 43.8498C19.3197 43.8911 19.7653 43.9428 19.9104 43.9428C20.0451 43.9221 20.6462 43.7981 20.7706 43.7568C21.1229 43.6018 21.1955 43.3022 20.7395 43.2092ZM22.3562 42.7856C22.2271 42.7128 22.0615 42.7189 21.8957 42.725C21.7553 42.7301 21.6148 42.7352 21.496 42.6926C21.3999 42.667 21.3236 42.6099 21.2475 42.5528C21.2005 42.5177 21.1536 42.4825 21.1022 42.455C21.078 42.4389 21.0445 42.4291 21.0094 42.4188C20.9543 42.4027 20.8955 42.3855 20.8638 42.3413C20.8153 42.2822 20.7921 42.1672 20.7678 42.0471C20.7453 41.9364 20.7221 41.8214 20.6773 41.742C20.6407 41.6892 20.596 41.646 20.5515 41.603C20.4828 41.5365 20.4145 41.4704 20.3768 41.3701C20.307 41.2437 20.2993 41.013 20.292 40.7937C20.2874 40.6545 20.2829 40.5198 20.2628 40.4195C20.2524 40.3524 20.2291 40.2878 20.2058 40.2232C20.1824 40.1586 20.1591 40.094 20.1488 40.0269C20.1488 39.9544 20.1865 39.9008 20.2179 39.8562C20.2268 39.8436 20.2352 39.8317 20.242 39.8202C20.4493 39.5826 20.4804 39.5206 20.5011 39.221C20.508 39.1728 20.5219 39.1234 20.5357 39.074C20.5633 38.9753 20.5909 38.8766 20.5633 38.787C20.5219 38.6217 19.9622 38.942 19.9415 39.066C19.8793 39.2106 19.8482 39.3243 19.8275 39.4896C19.8137 39.6274 19.7906 39.7743 19.7676 39.9213C19.7561 39.9947 19.7446 40.0682 19.7342 40.1405C19.7342 40.2029 19.7409 40.2635 19.7476 40.3239C19.7575 40.4135 19.7673 40.5025 19.7549 40.5952C19.7549 40.652 19.7394 40.6985 19.7239 40.745C19.7083 40.7915 19.6928 40.838 19.6928 40.8948C19.6661 41.3271 19.7467 41.4255 19.8767 41.584C19.9487 41.6717 20.0357 41.7779 20.128 41.9693C20.1806 42.0741 20.2233 42.192 20.2653 42.3083C20.298 42.3983 20.3302 42.4874 20.3664 42.5686C20.6542 42.9248 20.866 42.9399 21.1291 42.9587L21.1644 42.9612C21.2266 42.9612 21.3198 42.9612 21.3717 43.0026C21.42 43.024 21.4433 43.0676 21.4646 43.1075C21.4844 43.1447 21.5025 43.1786 21.5375 43.1885C21.8588 43.2505 22.0557 43.2092 22.3769 42.9302C22.4184 42.8889 22.3977 42.8062 22.3562 42.7856ZM28.3878 38.6114C28.3463 38.5494 28.2945 38.4564 28.2945 38.3737C28.2805 38.2828 28.2855 38.2061 28.2901 38.1339C28.2924 38.0995 28.2945 38.0661 28.2945 38.0328C28.2866 37.9816 28.2983 37.926 28.3094 37.8727C28.3276 37.786 28.3444 37.7056 28.2738 37.6608C28.0632 37.5597 27.9054 37.6342 27.721 37.7213C27.6604 37.7499 27.5968 37.7799 27.5276 37.8055C27.2271 37.9604 26.8747 38.0844 26.4705 38.1774C25.8902 38.2704 25.372 38.4357 24.8227 38.663C24.8227 38.663 23.2682 39.2003 23.1749 39.2416C23.0817 39.2623 22.0557 39.7066 22.0557 39.7066L21.0918 39.9856C20.6773 40.1199 20.5737 40.2439 20.7706 40.6778L20.9468 41.0911L20.9882 41.7834C21.1644 42.021 21.4028 42.0417 21.5893 41.8763C21.7852 41.7694 21.9832 41.6708 22.1795 41.5731C22.4194 41.4536 22.6568 41.3354 22.8847 41.2048C23.2034 40.9897 23.504 40.7979 23.7957 40.6117C24.4147 40.2168 24.9938 39.8473 25.6207 39.3346C25.714 39.2726 25.8073 39.2416 25.9213 39.221C25.9668 39.2127 26.014 39.2111 26.0608 39.2094C26.1313 39.2069 26.201 39.2045 26.2633 39.1796C26.2913 39.1657 26.324 39.1282 26.3551 39.0925C26.37 39.0754 26.3845 39.0587 26.398 39.0453C26.594 38.9445 26.8092 38.8552 27.0249 38.7657C27.1628 38.7085 27.301 38.6512 27.4344 38.5907C27.5484 38.5287 27.6727 38.4771 27.7764 38.4461C27.7952 38.4398 27.817 38.4287 27.8396 38.4173C27.8914 38.391 27.9475 38.3625 27.9836 38.3841C28.0251 38.4254 28.0458 38.5391 28.0043 38.5494C27.7445 38.7279 27.4202 38.8518 27.089 38.9784C26.8259 39.079 26.5583 39.1813 26.3151 39.314C26.1804 39.407 26.056 39.4999 25.9213 39.6136C25.4638 39.7866 24.8729 40.2363 24.3015 40.671C23.7469 41.0931 23.2107 41.5011 22.8329 41.6284C22.6552 41.6912 22.5092 41.7699 22.3598 41.8504C22.2392 41.9154 22.1163 41.9816 21.9728 42.0417C21.9289 42.0541 21.8823 42.061 21.8353 42.0678C21.7269 42.0837 21.617 42.0998 21.5375 42.1863C21.296 42.4656 21.8649 42.4487 21.9852 42.4451L22.0038 42.4446C22.2837 42.3 22.3458 42.331 22.6049 42.486L22.8847 42.4653C22.9674 42.3581 23.07 42.2575 23.1765 42.153C23.2034 42.1265 23.2306 42.0998 23.2578 42.0727C23.3411 41.9946 23.4289 41.928 23.516 41.862C23.6131 41.7884 23.7093 41.7156 23.7967 41.6284C24.2746 41.3809 24.786 40.9592 25.2529 40.5742C25.5656 40.3163 25.8584 40.0749 26.1078 39.9132C26.2059 39.8502 26.2883 39.7932 26.3648 39.7403C26.6523 39.5414 26.8559 39.4005 27.4862 39.221C27.56 39.1934 27.642 39.1719 27.7249 39.1503C27.8283 39.1232 27.9331 39.0958 28.0251 39.0557C28.3878 38.9627 28.4811 38.7664 28.3878 38.6114ZM31.0409 37.4748L30.7196 36.8032C30.3051 36.0903 29.2894 36.2453 28.8853 36.4829C28.7554 36.5365 28.6468 36.6306 28.5386 36.7243C28.3964 36.8476 28.2549 36.9702 28.0665 36.9996L27.9883 37.0148C25.7869 37.4435 23.6118 37.867 21.1229 38.7044C21.0297 38.725 20.9571 39.0247 20.9571 39.0247L20.9157 39.6446L27.6416 37.5162C27.9007 37.4542 28.1598 37.4025 28.336 37.4955C28.4644 37.5083 28.4973 37.6916 28.5309 37.8783C28.5515 37.9931 28.5724 38.1091 28.6158 38.1878C28.6699 38.2717 28.6996 38.3451 28.7291 38.4182C28.7505 38.4712 28.7719 38.524 28.8023 38.5804C28.8586 38.6562 28.9254 38.7258 28.9913 38.7944C29.1318 38.9407 29.2683 39.0827 29.2894 39.2726C29.3165 39.4279 29.2374 39.5788 29.159 39.7282C29.1175 39.8074 29.0762 39.8861 29.0511 39.9649L29.4242 40.2232L29.8594 39.4689C29.9211 39.3801 29.8423 39.2777 29.7668 39.1797C29.7282 39.1295 29.6904 39.0805 29.6729 39.035C29.653 38.9844 29.6341 38.9342 29.6153 38.8845C29.5459 38.7005 29.4784 38.5216 29.3723 38.3427C29.3168 38.2505 29.2427 38.1664 29.1693 38.0833C29.0784 37.9802 28.9887 37.8785 28.9371 37.7641C28.8438 37.5575 28.7298 37.2992 28.8023 37.0719C28.8645 36.9169 29.1236 36.8859 29.2894 36.9066C29.4656 36.9066 29.6314 37.0202 29.7247 37.1442C29.8171 37.2718 29.8364 37.409 29.8561 37.5493C29.8651 37.6136 29.8742 37.6786 29.8905 37.7435C29.9112 37.8778 30.0045 37.9295 30.1911 37.8985L30.9891 37.7125C31.0616 37.6402 31.0616 37.5472 31.0409 37.4748ZM29.2272 37.0616C29.0718 37.0616 28.9682 37.1959 28.9682 37.3405C28.9682 37.4955 29.0822 37.6195 29.2272 37.6195C29.3723 37.6195 29.5071 37.4852 29.5071 37.3405C29.5071 37.1959 29.3827 37.0616 29.2272 37.0616ZM37.7876 33.7552L36.8341 33.2903L32.1083 35.832L31.9425 35.6977L31.9632 35.5634L36.4921 33.0217L35.7459 32.6394L33.2379 34.0755L31.1963 35.1914C30.9372 35.3567 30.8751 35.708 31.0201 35.925L31.0744 35.9788L31.124 36.0276C31.4485 36.3468 31.7055 36.5997 31.8181 37.1235L33.1343 36.328L36.5854 34.3855L37.7876 33.7552ZM45.7773 36.1083C45.8081 36.0788 45.8394 36.0488 45.8711 36.018C46.0266 35.8114 45.7779 35.3671 45.5291 35.2018L37.1968 30.6246L36.4817 31.1619L44.783 35.5634L44.8037 35.6977L44.6171 35.832L36.2537 31.3892L35.7667 32.0401L43.6119 36.359L45.0317 37.2165C45.1739 36.6872 45.4463 36.4259 45.7773 36.1083ZM48.3895 37.3612C48.5553 37.2682 48.8351 37.3199 49.1046 37.3818L55.8305 39.5103L55.7683 38.8903C55.7683 38.8903 55.6751 38.5907 55.5922 38.57C53.0634 37.7331 50.8664 37.2992 48.6486 36.8756C48.4697 36.8526 48.339 36.7335 48.2046 36.611C48.0977 36.5135 47.9884 36.4139 47.8506 36.359C47.436 36.1213 46.2753 35.894 45.8711 36.5966L45.5291 37.2682C45.5084 37.3302 45.5084 37.4335 45.5913 37.4748L46.5448 37.7538C46.7106 37.7951 46.8246 37.7331 46.8453 37.5988C46.8562 37.5448 46.8642 37.4907 46.8721 37.4371C46.8946 37.2855 46.9166 37.1369 47.0008 36.9996C47.094 36.8756 47.2806 36.7619 47.436 36.7619C47.6019 36.7413 47.8713 36.7826 47.9231 36.9272C48.0164 37.1339 47.9024 37.3922 47.7884 37.6195C47.7343 37.7394 47.6418 37.8453 47.5474 37.9535C47.479 38.0319 47.4097 38.1113 47.3531 38.1981C47.2726 38.3216 47.2217 38.46 47.1694 38.602C47.1342 38.6976 47.0984 38.7948 47.0526 38.8903C47.0331 38.9323 47.0006 38.9773 46.9671 39.0235C46.8936 39.125 46.8162 39.232 46.866 39.3243L47.3013 40.0785L47.6951 39.8202C47.6696 39.7636 47.6355 39.7047 47.6003 39.6439C47.507 39.4827 47.4059 39.3081 47.436 39.128C47.4771 38.9438 47.604 38.8046 47.7332 38.663C47.7997 38.59 47.8668 38.5165 47.9231 38.4357C47.9977 38.3479 48.0235 38.2733 48.0527 38.1889C48.0681 38.1442 48.0846 38.0968 48.1097 38.0431C48.154 37.9748 48.1749 37.861 48.196 37.7457C48.2291 37.5648 48.2629 37.3801 48.3895 37.3612ZM47.3842 37.6298C47.5397 37.6298 47.6433 37.4955 47.6433 37.3509C47.6433 37.2062 47.5397 37.0719 47.3842 37.0719C47.2288 37.0719 47.1044 37.2062 47.1044 37.3509C47.1044 37.4955 47.2288 37.6298 47.3842 37.6298ZM55.0325 42.0727C54.9324 41.9728 54.8722 41.9607 54.7607 41.9382C54.7453 41.9351 54.7289 41.9318 54.7113 41.928C53.5758 41.2874 52.6104 40.699 51.754 40.177C50.5937 39.4697 49.6334 38.8844 48.7211 38.4564C48.6797 38.4151 48.6797 38.3014 48.7418 38.2704C48.7723 38.2552 48.8307 38.2846 48.8801 38.3095C48.8979 38.3185 48.9146 38.3269 48.9284 38.3324C49.0631 38.3737 49.1668 38.4254 49.2704 38.4771C50.217 38.9489 51.1141 39.4836 52.0079 40.0163C53.0319 40.6267 54.0515 41.2345 55.1362 41.742C55.1776 41.804 55.2502 41.8557 55.3227 41.8557C55.8616 41.4631 56.1829 40.0062 55.6233 39.8719L54.6283 39.6136C54.6283 39.6136 53.6127 39.159 53.5091 39.1487C53.2356 39.0505 52.9549 38.9401 52.6697 38.828C51.874 38.515 51.0429 38.1882 50.2342 38.0741C49.8404 37.9811 49.5087 37.8675 49.1875 37.7021C49.1268 37.6775 49.07 37.6504 49.0156 37.6245C48.8193 37.5309 48.6546 37.4523 48.4517 37.5575C48.3736 37.5999 48.3927 37.6957 48.4125 37.7949C48.4217 37.8406 48.4309 37.8871 48.4309 37.9295C48.4309 37.9673 48.4332 38.0029 48.4355 38.0385C48.4401 38.1097 48.4448 38.1809 48.4309 38.2704C48.4102 38.3634 48.3688 38.4357 48.3169 38.5081C48.2237 38.6527 48.3169 38.849 48.6382 38.9627C50.2801 39.9034 51.3948 40.6954 52.4823 41.4681C52.9118 41.7733 53.3371 42.0755 53.7889 42.3826C53.819 42.3884 53.8478 42.3946 53.8759 42.4006C54.1482 42.4589 54.3562 42.5034 55.0325 42.0727ZM55.1673 43.0955C56.9083 42.4446 57.3229 40.5745 56.8151 38.973C56.7736 38.8387 56.214 38.5184 56.1622 38.694C56.1696 38.783 56.1793 38.8802 56.1896 38.9839C56.3088 40.1813 56.5152 42.2536 54.3693 42.6719C54.3278 42.6926 54.3071 42.7856 54.3278 42.8372C54.6491 43.1059 54.8667 43.1472 55.1673 43.0955ZM57.8825 43.3745C57.8469 43.2946 57.773 43.2681 57.72 43.2491C57.7113 43.246 57.7032 43.2431 57.696 43.2402C57.5895 43.1892 57.4964 43.1402 57.4113 43.0954C57.0651 42.9132 56.8496 42.7997 56.4005 42.8992C56.4005 42.8992 56.0585 43.0852 55.986 43.0852C55.53 43.1782 55.6129 43.4778 55.9652 43.6018C56.0792 43.6432 56.6803 43.7671 56.8047 43.7878C56.9498 43.7878 57.4265 43.7465 57.5301 43.6948C57.6309 43.6583 57.6992 43.5815 57.7781 43.4928L57.81 43.4572C57.8307 43.4468 57.9032 43.4055 57.8825 43.3745ZM58.6805 41.5251C58.6805 41.1841 58.5458 41.1118 58.3074 41.0394C58.2494 41.0186 58.1763 40.9812 58.0977 40.941C57.8257 40.8018 57.4887 40.6293 57.4887 40.9981C57.4887 41.3184 57.468 41.4321 57.2503 41.7317C57.2231 41.7724 57.1861 41.8091 57.1477 41.847C57.0984 41.8958 57.047 41.9467 57.012 42.0107C56.9187 42.1243 56.8876 42.2483 56.8565 42.3826C56.7952 42.6169 57.4592 42.7909 57.6666 42.8453L57.6752 42.8476C57.6982 42.8517 57.7251 42.858 57.754 42.8648C57.8683 42.8915 58.0153 42.926 58.0898 42.8682C58.1683 42.8161 58.21 42.7201 58.2522 42.6232L58.2671 42.5891L58.2763 42.5686C58.2901 42.5307 58.3017 42.4917 58.3132 42.4527C58.3362 42.3746 58.3592 42.2965 58.4007 42.2276C58.4192 42.1999 58.4481 42.1846 58.4762 42.1697C58.511 42.1512 58.5447 42.1333 58.5561 42.0933C58.6355 41.8855 58.6579 41.7061 58.6779 41.5461L58.6805 41.5251ZM58.6909 40.3575C58.6909 40.2034 58.6734 40.0537 58.6555 39.8999C58.6458 39.8164 58.636 39.7318 58.6287 39.6446C58.6255 39.6238 58.6228 39.6028 58.6201 39.5818C58.6052 39.4668 58.5903 39.3513 58.494 39.2726C58.4829 39.2617 58.4661 39.2565 58.448 39.251C58.4321 39.2461 58.4153 39.241 58.4007 39.2313C58.0587 39.1383 57.6856 39.0867 57.3229 39.0453C57.2814 39.0453 57.2296 39.066 57.2192 39.1073C57.1985 39.1073 57.1778 39.128 57.1778 39.1487V39.2416C57.1886 39.2903 57.2137 39.3305 57.2381 39.3697C57.2603 39.4052 57.2819 39.4399 57.2918 39.4793C57.3169 39.5543 57.3192 39.633 57.3217 39.7178C57.3233 39.7733 57.3251 39.8313 57.3332 39.8926L57.3364 39.9101C57.3562 40.0188 57.3773 40.1355 57.4265 40.2335C57.4587 40.4183 57.5536 40.4407 57.7015 40.4755C57.7437 40.4854 57.7904 40.4964 57.841 40.5125C57.9399 40.5407 58.0533 40.5592 58.1679 40.578C58.2215 40.5868 58.2753 40.5956 58.3281 40.6055L58.3575 40.6069C58.5587 40.6171 58.6909 40.6237 58.6909 40.3575ZM59.2194 21.2946C59.0536 21.3566 57.126 22.3382 57.126 22.4105C57.1456 22.4279 57.1657 22.4454 57.1859 22.4631C57.358 22.613 57.5405 22.7721 57.5405 22.9478C57.8809 22.7254 58.2314 22.5461 58.5673 22.3743C58.8244 22.2427 59.0731 22.1154 59.3023 21.9766C59.3582 21.9162 59.4245 21.8684 59.4891 21.8218C59.5683 21.7647 59.6448 21.7096 59.6961 21.6356C59.9863 21.4703 59.4785 21.1706 59.2194 21.2946ZM29.2065 64.0182C27.1027 64.5555 25.6518 63.8632 23.7346 62.4064C23.6416 62.3377 23.5488 62.2689 23.4563 62.2003C22.7132 61.649 21.9811 61.1058 21.2162 60.7016H37.2072C36.347 60.8772 35.4558 61.2492 34.5541 61.7141L31.1238 63.2846C30.4087 63.6256 29.7869 63.8632 29.2065 64.0182ZM24.4911 65.1341C27.6002 67.4072 30.3154 66.8906 33.0307 64.6588C29.8802 66.0433 28.3049 66.6219 24.4911 65.1341ZM43.6948 64.6588C46.41 66.9009 49.1253 67.4072 52.2344 65.1341C48.4102 66.6219 46.8349 66.0433 43.6948 64.6588ZM36.8652 76.3755C37.6425 77.605 38.0259 78.8036 38.2021 80.1364L38.1399 77.4914L36.8652 76.3755ZM27.6163 74.7698C27.5131 74.8962 27.4079 75.0252 27.2996 75.1563C27.88 73.9061 28.3671 72.5733 28.3774 71.1991C28.3927 71.2697 28.4074 71.3409 28.4221 71.4121C28.5473 72.0182 28.6747 72.6347 29.1754 73.0692C28.6361 73.5202 28.1552 74.1094 27.6163 74.7698Z" fill="#333333"/>
</svg>
