<svg width="172" height="41" viewBox="0 0 172 41" fill="none" xmlns="http://www.w3.org/2000/svg">
<mask id="mask0_1_8" style="mask-type:luminance" maskUnits="userSpaceOnUse" x="8" y="19" width="37" height="7">
<path d="M8.60156 19.043H44.1664V25.2054H8.60156V19.043Z" fill="white"/>
</mask>
<g mask="url(#mask0_1_8)">
<path d="M59.4099 19.3184H30.9838L29.7695 21.418H26.9611L25.7468 19.3184C24.6984 19.3184 11.5846 19.3184 10.5388 19.3184L8.96875 22.0385L10.5388 24.7586C11.5846 24.7586 24.6984 24.7586 25.7468 24.7586L26.9611 22.659H29.7695L30.9838 24.7586H59.4099C59.7229 22.9612 59.7229 21.1211 59.4099 19.3184Z" fill="#D8156B"/>
</g>
<mask id="mask1_1_8" style="mask-type:luminance" maskUnits="userSpaceOnUse" x="15" y="5" width="30" height="7">
<path d="M15.4453 5.34668H44.163V11.5091H15.4453V5.34668Z" fill="white"/>
</mask>
<g mask="url(#mask1_1_8)">
<path d="M20.3819 11.3861L21.5962 9.28917H24.4046L25.6189 11.3861H55.5883C49.9555 5.03648 43.638 5.94318 36.0206 5.94318H25.6189L24.4046 8.04278H21.5962L20.3819 5.94318H17.2419L15.6719 8.6633L17.2419 11.3807H20.3819V11.3861Z" fill="#F6C10B"/>
</g>
<mask id="mask2_1_8" style="mask-type:luminance" maskUnits="userSpaceOnUse" x="29" y="12" width="16" height="7">
<path d="M29.8242 12.1934H44.163V18.3557H29.8242V12.1934Z" fill="white"/>
</mask>
<g mask="url(#mask2_1_8)">
<path d="M39.1573 14.7319H36.3462L35.1319 12.6323H31.9919L30.4219 15.3524L31.9919 18.0725H35.1319L36.3462 15.9729H39.1573L40.3716 18.0725H59.1449C58.6394 16.0853 57.7595 14.2451 56.588 12.627H40.3716L39.1573 14.7319Z" fill="#01924F"/>
</g>
<mask id="mask3_1_8" style="mask-type:luminance" maskUnits="userSpaceOnUse" x="0" y="19" width="7" height="7">
<path d="M0 19.043H6.54486V25.2054H0V19.043Z" fill="white"/>
</mask>
<g mask="url(#mask3_1_8)">
<path d="M1.57002 19.3184L0 22.0385L1.57002 24.7639H4.7154L6.28542 22.0385L4.7154 19.3184H1.57002Z" fill="#D8156B"/>
</g>
<path d="M21.2148 15.1443L22.6281 17.9731H25.4593L26.8725 15.1443L25.4593 12.3154H22.6281L21.2148 15.1443Z" fill="#01904E"/>
<path d="M12.7305 32.1172L11.3125 34.9474L12.7305 37.7748H15.5569L16.9702 34.9474L15.5569 32.1172H12.7305Z" fill="#F6C10B"/>
<mask id="mask4_1_8" style="mask-type:luminance" maskUnits="userSpaceOnUse" x="16" y="25" width="29" height="8">
<path d="M16.8125 25.8896H44.1608V32.052H16.8125V25.8896Z" fill="white"/>
</mask>
<g mask="url(#mask4_1_8)">
<path d="M25.7432 28.1013H22.9322L21.7179 26.0044H18.5778L17.0078 28.7218L18.5778 31.4419H21.7179L22.9322 29.3423H25.7432L26.9575 31.4419H56.5792C57.7507 29.8238 58.6307 27.9836 59.1362 25.999C49.3015 25.999 36.7868 25.999 26.9522 25.999L25.7432 28.1013Z" fill="#01904E"/>
</g>
<mask id="mask5_1_8" style="mask-type:luminance" maskUnits="userSpaceOnUse" x="19" y="32" width="26" height="7">
<path d="M19.5547 32.0518H44.1641V38.2141H19.5547V32.0518Z" fill="white"/>
</mask>
<g mask="url(#mask5_1_8)">
<path d="M33.7961 34.7907H30.985L29.7707 32.6938C26.9383 32.6938 24.1005 32.6938 21.2653 32.6938L19.6953 35.4113L21.2653 38.1314C24.1005 38.1314 26.9329 38.1314 29.7707 38.1314L30.985 36.0318H33.7961L35.0103 38.1314C43.053 38.1314 49.8145 39.2039 55.5918 32.6885H35.0103L33.7961 34.7907Z" fill="#F6C10B"/>
</g>
<path d="M45.2617 5.24316V39.1891" stroke="black" stroke-width="3" stroke-linecap="square"/>
<path d="M71.1797 17.7344V23.125H68.7578V20H57.3906V5.15625H59.8516V17.7344H66.9609V5.15625H69.4219V17.7344H71.1797ZM83.3656 8.28125H85.7875V20H83.4828V11.4844L77.7797 20H75.3578V8.28125H77.6625V16.7188L83.3656 8.28125ZM103.794 8.16406C106.606 8.16406 108.442 10.5078 108.442 14.1406C108.442 17.7344 106.489 20.1172 103.794 20.1172C102.388 20.1172 101.255 19.5703 100.473 18.5547V23.9062H98.1297V18.5156C97.3484 19.5703 96.2156 20.1172 94.8484 20.1172C92.0359 20.1172 90.2 17.7734 90.2 14.1406C90.2 10.5469 92.1141 8.16406 94.8484 8.16406C96.2156 8.16406 97.3484 8.67188 98.1297 9.6875V4.375H100.473V9.76562C101.255 8.71094 102.427 8.16406 103.794 8.16406ZM95.4344 18.2031C97.1531 18.2031 98.2469 16.6016 98.2469 14.1406C98.2469 11.6797 97.1531 10.0781 95.4344 10.0781C93.6766 10.0781 92.5828 11.6797 92.5828 14.1406C92.5828 16.6016 93.6766 18.2031 95.4344 18.2031ZM103.208 18.2031C104.927 18.2031 106.059 16.6016 106.059 14.1406C106.059 11.6797 104.927 10.0781 103.208 10.0781C101.45 10.0781 100.356 11.6797 100.356 14.1406C100.356 16.6016 101.45 18.2031 103.208 18.2031ZM119.027 8.08594C122.112 8.08594 124.144 10.4688 124.144 14.1406C124.144 17.7344 122.034 20.1953 119.027 20.1953C117.425 20.1953 116.058 19.5703 115.159 18.4375V23.9062H112.816V8.28125H114.847L115.003 10.1172C115.941 8.82812 117.347 8.08594 119.027 8.08594ZM118.402 18.2031C120.472 18.2031 121.761 16.6016 121.761 14.1406C121.761 11.6797 120.472 10.0781 118.402 10.0781C116.331 10.0781 115.003 11.6797 115.003 14.1406C115.003 16.6016 116.331 18.2031 118.402 18.2031ZM133.634 20.1953C130.041 20.1953 127.697 17.8125 127.697 14.1406C127.697 10.5469 130.119 8.08594 133.634 8.08594C137.228 8.08594 139.572 10.4688 139.572 14.1406C139.572 17.7344 137.15 20.1953 133.634 20.1953ZM133.634 18.2031C135.783 18.2031 137.189 16.6016 137.189 14.1406C137.189 11.6797 135.783 10.0781 133.634 10.0781C131.486 10.0781 130.08 11.6797 130.08 14.1406C130.08 16.6016 131.486 18.2031 133.634 18.2031ZM151.719 13.9844C153.008 14.4531 153.711 15.3906 153.711 16.7969C153.711 18.9062 152.188 20 149.648 20H143.984V8.28125H149.219C151.797 8.28125 153.398 9.21875 153.398 11.3281C153.398 12.6172 152.773 13.5156 151.719 13.9844ZM146.25 10.1562V13.125H149.219C150.547 13.125 151.094 12.6953 151.094 11.6016C151.094 10.6641 150.43 10.1562 149.336 10.1562H146.25ZM149.414 18.125C150.664 18.125 151.367 17.5391 151.367 16.5234C151.367 15.5078 150.586 14.8828 149.258 14.8828H146.25V18.125H149.414ZM159.608 14.8828C159.881 16.9141 161.17 18.2031 163.241 18.2031C164.959 18.2031 166.053 17.5391 166.717 16.6797L168.319 18.0859C167.342 19.2578 165.702 20.1953 163.241 20.1953C159.373 20.1953 157.264 17.6172 157.264 14.1406C157.264 10.5469 159.608 8.08594 163.045 8.08594C166.483 8.08594 168.709 10.4688 168.709 14.1406C168.709 14.4141 168.709 14.6094 168.631 14.8828H159.608ZM163.045 10.0391C161.209 10.0391 159.998 11.2109 159.647 13.0859H166.327C166.014 11.1719 164.803 10.0391 163.045 10.0391Z" fill="black"/>
<path d="M64.3047 29.9463C65.7109 30.4385 66.5547 31.4932 66.5547 33.04C66.5547 35.4307 64.4805 36.9775 61.2812 36.9775C58.6094 36.9775 56.6055 35.6768 55.7617 33.6729L57.6602 32.6885C58.2227 34.1299 59.5586 35.0088 61.3164 35.0088C63.1797 35.0088 64.375 34.2002 64.375 32.8291C64.375 31.6338 63.3555 30.8955 61.668 30.8955H59.9102V29.0322H61.7031C62.9688 29.0322 63.8828 28.3994 63.8828 27.2744C63.8828 26.0088 62.9688 25.2002 61.2812 25.2002C59.5938 25.2002 58.4336 26.0791 57.8711 27.4854L55.8672 26.7119C56.7109 24.6025 58.7852 23.2666 61.3164 23.2666C64.2695 23.2666 66.1328 24.7432 66.1328 27.0283C66.1328 28.3994 65.4648 29.3838 64.3047 29.9463ZM77.9889 34.9736H78.3756V36.8018C78.2702 36.8369 77.9889 36.8721 77.6373 36.8721C76.3366 36.8721 75.7389 36.415 75.5983 35.2197C74.86 36.2744 73.4537 36.9775 71.9069 36.9775C69.8678 36.9775 68.4616 35.7119 68.4616 33.8486C68.4616 31.2822 70.9225 30.7197 72.9967 30.4033C74.5787 30.1924 75.3522 30.0518 75.3522 29.2432C75.3522 28.3994 74.4733 27.8369 73.1373 27.8369C71.942 27.8369 70.817 28.3643 69.9733 29.2432L68.6725 27.8721C69.903 26.7119 71.4147 26.0791 73.2428 26.0791C75.7741 26.0791 77.3209 27.3799 77.3209 29.5596V34.3057C77.3209 34.7627 77.5319 34.9736 77.9889 34.9736ZM72.2584 35.2549C73.8756 35.2549 75.2819 34.1299 75.2819 32.7939V31.4229C74.8952 31.6689 74.2623 31.7744 73.2428 31.9502C71.9069 32.1611 70.5358 32.3721 70.5358 33.7432C70.5358 34.7275 71.1686 35.2549 72.2584 35.2549ZM90.4427 26.2549V36.8018H88.3333V28.1533H83.2005V36.8018H81.0911V26.2549H90.4427ZM98.6777 36.9775C95.4433 36.9775 93.3339 34.833 93.3339 31.5283C93.3339 28.2939 95.5136 26.0791 98.6777 26.0791C101.912 26.0791 104.021 28.2236 104.021 31.5283C104.021 34.7627 101.842 36.9775 98.6777 36.9775ZM98.6777 35.1846C100.611 35.1846 101.877 33.7432 101.877 31.5283C101.877 29.3135 100.611 27.8721 98.6777 27.8721C96.7441 27.8721 95.4784 29.3135 95.4784 31.5283C95.4784 33.7432 96.7441 35.1846 98.6777 35.1846ZM112.502 26.0791C115.28 26.0791 117.108 28.2236 117.108 31.5283C117.108 34.7627 115.21 36.9775 112.502 36.9775C111.061 36.9775 109.831 36.415 109.022 35.3955V40.3174H106.913V26.2549H108.741L108.881 27.9424C109.725 26.7471 110.991 26.0791 112.502 26.0791ZM111.94 35.1846C113.768 35.1846 114.963 33.7432 114.963 31.5283C114.963 29.3135 113.768 27.8721 111.94 27.8721C110.077 27.8721 108.881 29.3135 108.881 31.5283C108.881 33.7432 110.077 35.1846 111.94 35.1846ZM120.07 24.7783V22.6689H122.39V24.7783H120.07ZM120.175 36.8018V26.2549H122.284V36.8018H120.175ZM139.906 34.9385H140.328V36.8018H139.344C138.078 36.8018 137.34 36.1338 137.34 34.833V32.4072H133.859V36.8018H131.75V32.4072H128.305V34.833C128.305 36.1338 127.531 36.8018 126.301 36.8018H125.316V34.9385H125.703C126.019 34.9385 126.23 34.7275 126.23 34.4111V30.5791H128.129L125.422 26.2549H127.672L130.203 30.4736H131.75V22.7393H133.859V30.4736H135.406L137.973 26.2549H140.223L137.515 30.5791H139.379V34.4111C139.379 34.7275 139.59 34.9385 139.906 34.9385ZM156.965 34.9385H157.387V36.8018H156.403C155.137 36.8018 154.399 36.1338 154.399 34.833V32.4072H150.918V36.8018H148.809V32.4072H145.364V34.833C145.364 36.1338 144.59 36.8018 143.36 36.8018H142.375V34.9385H142.762C143.079 34.9385 143.29 34.7275 143.29 34.4111V30.5791H145.188L142.481 26.2549H144.731L147.262 30.4736H148.809V22.7393H150.918V30.4736H152.465L155.032 26.2549H157.282L154.575 30.5791H156.438V34.4111C156.438 34.7275 156.649 34.9385 156.965 34.9385ZM168.61 26.2549V36.8018H166.501V32.8643H162.388V34.833C162.388 36.1338 161.65 36.8018 160.349 36.8018H159.4V34.9385H159.786C160.103 34.9385 160.314 34.7275 160.314 34.4111V31.915H162.001C160.806 31.4932 159.927 30.5439 159.927 29.3135C159.927 27.4854 161.333 26.2549 163.548 26.2549H168.61ZM164.04 27.9424C162.775 27.9424 162.036 28.5752 162.036 29.5596C162.036 30.5439 162.88 31.2119 164.216 31.2119H166.501V27.9424H164.04Z" fill="#DB156D"/>
</svg>
