<svg width="445" height="445" viewBox="0 0 445 445" fill="none" xmlns="http://www.w3.org/2000/svg">
<circle cx="222.5" cy="222.5" r="222.5" fill="url(#paint0_radial_2358_7548)" fill-opacity="0.05"/>
<path d="M175.582 312.5C167.999 308.664 161 287.5 164.58 278.305C163.816 287.573 166.554 298.856 175.581 303.305C186.865 308.866 192.081 309.305 202.081 309.305H243.581C245.393 309.305 277.068 312.093 277.581 285.805C278.094 259.517 280.999 251.141 298.479 216.089C314.081 184.805 314.151 182.805 325.151 159.305C327.726 153.805 333.478 145.805 326.58 105.805C325.373 98.8047 321.274 88.0376 319.58 84.8047C312.984 72.2131 309.15 67.7519 301.581 53.3047C305.081 55.8047 311.581 62.1698 322.827 82.1205C327.956 91.2202 338.238 134.627 334.081 147.305C324.08 177.805 312 204 302 224C289.308 249.384 284 267.5 282 290.5C280 313.5 273 311 265.5 312.5C258 314 255.539 314.055 249.5 314.5C246.742 314.811 238.869 314.898 236.491 314.979C236.281 314.987 236.115 314.994 236 315C224.487 315.582 217 315 203 315C193.986 315 182.5 316 175.582 312.5Z" fill="#E41B85" fill-opacity="0.1"/>
<path d="M209.08 230.305C209.48 228.305 193.247 175.138 185.08 148.805C190.247 147.971 201.08 145.205 203.08 140.805C209.913 149.638 227.48 161.505 243.08 138.305C244.247 143.138 250.08 152.005 264.08 148.805L235.08 230.305M209.08 230.305C208.68 232.305 206.58 271.471 205.58 290.805M209.08 230.305C218.08 230.305 218.08 223.305 219.08 210.805C219.88 200.805 215.747 192.305 213.58 189.305C205.08 175.805 203.08 140.805 203.08 135.805M235.08 230.305L239.08 290.805M235.08 230.305C227.08 230.305 227.58 225.805 226.08 210.805C224.88 198.805 228.58 191.471 230.58 189.305C236.58 180.905 241.413 150.138 243.08 135.805M264.08 175.305L265.08 181.805H267.58V200.305M267.58 200.305C268.247 200.138 269.98 200.105 271.58 201.305C273.58 202.805 273.58 204.305 276.08 204.305M267.58 200.305V204.305L269.58 204.805L267.58 212.805" stroke="url(#paint1_linear_2358_7548)"/>
<path d="M180.58 329.306C180.58 333.306 183.913 337.639 185.58 339.306C183.913 340.306 180.58 343.306 180.58 347.306C180.58 351.306 184.247 354.806 186.58 356.306C184.247 356.639 180.58 359.206 180.58 364.806C180.58 370.406 183.913 373.139 185.58 373.806H263.58C265.58 372.639 269.58 369.206 269.58 364.806C269.58 360.406 265.58 357.806 263.58 356.306C265.58 355.306 269.58 350.906 269.58 347.306C269.58 343.706 266.58 340.473 264.58 339.306C266.58 337.973 269.58 334.106 269.58 329.306C269.58 324.506 264.58 322.306 262.08 321.806H185.58C183.913 322.639 180.58 325.306 180.58 329.306Z" fill="url(#paint2_linear_2358_7548)"/>
<path d="M253 383.001H198C204.4 391.401 212.42 395.697 217.5 396.501H230.5C240.42 396.697 249.167 387.501 253 383.001Z" fill="url(#paint3_linear_2358_7548)"/>
<path d="M176.58 311.306C173.247 308.973 166.28 302.507 165.08 295.307C163.58 286.307 165.08 269.807 161.08 258.307C157.08 246.807 140.08 212.307 131.58 198.807C123.08 185.307 114.58 168.806 113.08 152.306C111.58 135.806 112.08 135.306 112.08 134.306C112.08 133.306 127.58 136.806 135.08 145.806C141.08 153.006 147.913 170.139 150.58 177.805C155.413 175.805 166.68 172.405 173.08 174.805C179.48 177.205 182.413 177.805 183.08 177.805M183.08 177.805C183.08 174.639 183.08 168.205 183.08 167.805C183.08 167.405 208.413 155.972 221.08 150.305L229.58 117.305L262.58 89.3052L283.08 122.305L310.58 100.805M183.08 177.805C184.913 177.805 189.18 178.205 191.58 179.806C193.98 181.407 194.58 195.473 194.58 202.306L206.08 214.306L227.08 177.805L262.58 174.805C269.413 162.805 285.58 138.306 295.58 136.306C305.58 134.306 309.747 128.473 310.58 125.806V100.805M310.58 100.805C307.58 86.1386 301.48 56.1052 301.08 53.3052C300.58 49.8052 320.98 77.986 328.08 96.3052C333 109 336.378 124.389 334.58 142.306C331.5 173.001 311.747 202.306 300.58 223.306M280.58 295.307C280.58 298.973 279.38 306.806 274.58 308.806C269.78 310.806 264.58 311.306 262.58 311.306M202.5 313.501L225 314.001L249 313.001M185.58 339.306C183.913 337.639 180.58 333.306 180.58 329.306C180.58 325.306 183.913 322.639 185.58 321.806H262.08C264.58 322.306 269.58 324.506 269.58 329.306C269.58 334.106 266.58 337.973 264.58 339.306C266.58 340.473 269.58 343.706 269.58 347.306C269.58 350.906 265.58 355.306 263.58 356.306C265.58 357.806 269.58 360.406 269.58 364.806C269.58 369.206 265.58 372.639 263.58 373.806H185.58C183.913 373.139 180.58 370.406 180.58 364.806C180.58 359.206 184.247 356.639 186.58 356.306C184.247 354.806 180.58 351.306 180.58 347.306C180.58 343.306 183.913 340.306 185.58 339.306ZM198 383.001H253C249.167 387.501 240.42 396.697 230.5 396.501H217.5C212.42 395.697 204.4 391.401 198 383.001Z" stroke="url(#paint4_linear_2358_7548)" stroke-width="3" stroke-linecap="round"/>
<rect x="190.58" y="333.305" width="67" height="8" rx="4" fill="white"/>
<path d="M192.58 356.305C192.58 354.096 194.371 352.305 196.58 352.305H234.58C236.789 352.305 238.58 354.096 238.58 356.305C238.58 358.514 236.789 360.305 234.58 360.305H196.58C194.371 360.305 192.58 358.514 192.58 356.305Z" fill="white"/>
<path d="M188.5 159.5L191.5 169.5M204.5 154L205.5 161.5M214.5 150C216.667 151.167 221.6 152.7 226 151.5" stroke="#B6B6B6"/>
<defs>
<radialGradient id="paint0_radial_2358_7548" cx="0" cy="0" r="1" gradientUnits="userSpaceOnUse" gradientTransform="translate(129 29.5) rotate(58.7917) scale(441.956)">
<stop offset="0.305" stop-color="#E41B85" stop-opacity="0"/>
<stop offset="1" stop-color="#DB156D"/>
</radialGradient>
<linearGradient id="paint1_linear_2358_7548" x1="203.58" y1="139.305" x2="230.58" y2="290.805" gradientUnits="userSpaceOnUse">
<stop stop-color="#B0B0B0"/>
<stop offset="1" stop-color="white"/>
</linearGradient>
<linearGradient id="paint2_linear_2358_7548" x1="291.08" y1="346.297" x2="268.86" y2="390.713" gradientUnits="userSpaceOnUse">
<stop stop-color="#373839"/>
<stop offset="1" stop-color="#D8156B"/>
</linearGradient>
<linearGradient id="paint3_linear_2358_7548" x1="291.08" y1="346.297" x2="268.86" y2="390.713" gradientUnits="userSpaceOnUse">
<stop stop-color="#373839"/>
<stop offset="1" stop-color="#D8156B"/>
</linearGradient>
<linearGradient id="paint4_linear_2358_7548" x1="275.58" y1="317.797" x2="221.096" y2="290.988" gradientUnits="userSpaceOnUse">
<stop stop-color="#373839"/>
<stop offset="1" stop-color="#D8156B"/>
</linearGradient>
</defs>
</svg>
